<?xml version="1.0" encoding="UTF-8"?>
<!DOCTYPE svg PUBLIC "-//W3C//DTD SVG 1.1//EN" "http://www.w3.org/Graphics/SVG/1.1/DTD/svg11.dtd">
<svg xmlns="http://www.w3.org/2000/svg" version="1.1" width="1024px" height="1024px" style="shape-rendering:geometricPrecision; text-rendering:geometricPrecision; image-rendering:optimizeQuality; fill-rule:evenodd; clip-rule:evenodd" xmlns:xlink="http://www.w3.org/1999/xlink">
<g><path style="opacity:1" fill="#fdf3e8" d="M 258.5,-0.5 C 513.5,-0.5 768.5,-0.5 1023.5,-0.5C 1023.5,178.167 1023.5,356.833 1023.5,535.5C 1022.12,534.199 1020.45,533.366 1018.5,533C 1019.7,532.346 1019.7,531.846 1018.5,531.5C 1016.41,534.377 1013.75,536.544 1010.5,538C 1011.17,538.333 1011.83,538.667 1012.5,539C 1010.71,539.785 1009.21,540.951 1008,542.5C 1006.73,541.095 1006.23,539.429 1006.5,537.5C 1003.4,537.413 1003.07,537.913 1005.5,539C 1004.17,539.667 1004.17,540.333 1005.5,541C 1004.22,541.684 1003.05,541.517 1002,540.5C 1001.54,541.744 1002.04,542.577 1003.5,543C 1001.34,544.085 1001.18,545.251 1003,546.5C 1004.22,545.614 1005.55,544.614 1007,543.5C 1007.69,545.568 1007.52,547.568 1006.5,549.5C 1008.19,551.194 1009.86,552.86 1011.5,554.5C 1009.89,555.427 1008.22,556.261 1006.5,557C 1006.32,558.66 1006.99,560.326 1008.5,562C 1007.45,562.492 1006.45,562.326 1005.5,561.5C 1004.57,563.113 1003.74,564.779 1003,566.5C 1001.89,565.24 1001.72,564.073 1002.5,563C 1001.83,562.667 1001.17,562.333 1000.5,562C 1003.49,560.754 1003.99,558.587 1002,555.5C 1001.33,556.167 1000.67,556.833 1000,557.5C 998.09,556.009 996.923,554.509 996.5,553C 997.91,552.632 998.91,551.799 999.5,550.5C 997.084,549.86 994.418,549.36 991.5,549C 994.649,549.776 995.149,551.276 993,553.5C 990.852,552.364 988.852,549.698 987,545.5C 986.692,546.308 986.192,546.975 985.5,547.5C 983.482,546.698 981.482,545.198 979.5,543C 980.068,541.348 981.401,539.682 983.5,538C 982.167,537.333 982.167,536.667 983.5,536C 979.735,534.128 979.735,533.295 983.5,533.5C 982.82,531.111 981.986,528.778 981,526.5C 980.517,527.448 980.351,528.448 980.5,529.5C 978.712,529.785 977.045,529.452 975.5,528.5C 973.311,527.032 970.977,525.365 968.5,523.5C 962.016,525.326 961.016,528.493 965.5,533C 960.379,533.577 960.379,534.577 965.5,536C 961.059,535.911 959.726,537.745 961.5,541.5C 960.178,541.33 959.011,541.663 958,542.5C 957.833,542.167 957.667,541.833 957.5,541.5C 961.07,540.886 961.403,539.552 958.5,537.5C 958.167,538.167 957.833,538.833 957.5,539.5C 956.749,538.624 956.249,537.624 956,536.5C 955.5,537.667 954.667,538.5 953.5,539C 953.957,539.414 954.291,539.914 954.5,540.5C 952.089,541.088 950.089,542.255 948.5,544C 946.236,544.236 944.069,544.736 942,545.5C 940.853,544.542 939.853,544.875 939,546.5C 938.107,545.289 937.274,545.289 936.5,546.5C 937.325,547.386 938.325,547.719 939.5,547.5C 939.567,550.766 937.901,552.266 934.5,552C 936.891,553.51 939.224,554.844 941.5,556C 940.833,556.333 940.167,556.667 939.5,557C 942.176,559.494 941.842,561.66 938.5,563.5C 939.626,565.95 938.959,567.95 936.5,569.5C 937.471,570.962 937.138,572.295 935.5,573.5C 934.5,572.833 933.5,572.167 932.5,571.5C 930.999,572.752 929.332,573.752 927.5,574.5C 926.212,571.085 924.212,570.751 921.5,573.5C 920.754,574.736 920.421,576.07 920.5,577.5C 917.762,578.035 915.928,577.035 915,574.5C 914.086,575.654 913.253,575.487 912.5,574C 917.476,571.946 917.476,570.446 912.5,569.5C 912.059,566.039 912.559,562.706 914,559.5C 913.586,559.957 913.086,560.291 912.5,560.5C 910.465,558.628 908.298,556.961 906,555.5C 904.699,556.098 903.865,557.098 903.5,558.5C 904.891,558.109 905.891,558.942 906.5,561C 903.949,562.516 904.282,563.349 907.5,563.5C 907.343,562.127 907.51,560.793 908,559.5C 909.419,560.46 910.919,561.293 912.5,562C 909.124,563.503 905.791,565.003 902.5,566.5C 900.675,565.429 899.508,566.096 899,568.5C 896.628,565.63 893.795,563.297 890.5,561.5C 888.496,563.005 886.663,564.672 885,566.5C 883.273,566.354 883.106,565.687 884.5,564.5C 883.998,563.479 883.332,563.312 882.5,564C 881.692,566.088 880.692,568.088 879.5,570C 881.23,571.852 882.396,571.686 883,569.5C 883.5,570 884,570.5 884.5,571C 882.981,572.351 881.648,573.851 880.5,575.5C 880.569,577.278 880.903,579.111 881.5,581C 880.646,582.022 879.646,582.855 878.5,583.5C 877.403,581.771 876.237,580.104 875,578.5C 874.309,580.891 873.309,580.891 872,578.5C 869.156,579.125 867.322,577.792 866.5,574.5C 868.021,572.379 870.021,570.879 872.5,570C 870.167,570.333 867.833,570.667 865.5,571C 867.968,569.412 868.134,567.578 866,565.5C 865.667,565.833 865.333,566.167 865,566.5C 863.171,564.844 861.837,562.844 861,560.5C 860.692,561.308 860.192,561.975 859.5,562.5C 857.703,560.869 856.536,558.869 856,556.5C 852.526,557.928 852.026,557.428 854.5,555C 852.568,554.862 850.734,555.362 849,556.5C 848.716,554.114 847.716,553.448 846,554.5C 845.727,552.899 845.227,551.399 844.5,550C 845.565,548.371 846.899,547.204 848.5,546.5C 847.397,546.002 846.397,545.669 845.5,545.5C 846.5,544.833 847.5,544.167 848.5,543.5C 847.371,541.471 847.871,541.137 850,542.5C 850.915,541.672 851.581,540.672 852,539.5C 853.374,542.275 855.207,544.608 857.5,546.5C 859.338,543.505 861.338,540.671 863.5,538C 863.167,537.667 862.833,537.333 862.5,537C 867.328,536.394 867.328,535.061 862.5,533C 864.784,531.637 864.951,530.137 863,528.5C 862.667,528.833 862.333,529.167 862,529.5C 861.727,527.899 861.227,526.399 860.5,525C 864.322,522.448 864.988,519.448 862.5,516C 863.967,514.902 864.801,513.402 865,511.5C 865.5,512.667 866.333,513.5 867.5,514C 866.044,514.423 865.544,515.256 866,516.5C 866.667,515.167 867.333,515.167 868,516.5C 868.956,515.421 869.789,514.255 870.5,513C 867.623,510.613 864.956,507.946 862.5,505C 862.958,502.602 864.292,500.936 866.5,500C 865.584,499.626 864.75,499.126 864,498.5C 862.612,499.554 861.112,499.72 859.5,499C 858.848,496.91 858.681,494.743 859,492.5C 858,491.5 857,490.5 856,489.5C 854.37,493.94 853.537,498.273 853.5,502.5C 852.752,500.668 851.752,499.001 850.5,497.5C 853.076,496.117 852.742,495.283 849.5,495C 850.624,494.751 851.624,494.251 852.5,493.5C 851.515,491.902 851.349,490.235 852,488.5C 852.333,488.833 852.667,489.167 853,489.5C 857.356,486.11 861.356,486.443 865,490.5C 865.865,488.112 865.032,486.612 862.5,486C 863.673,482.89 863.173,482.723 861,485.5C 859.613,478.481 856.613,477.815 852,483.5C 850.869,482.396 850.035,482.729 849.5,484.5C 849.709,485.086 850.043,485.586 850.5,486C 849.101,487.062 848.101,488.395 847.5,490C 848.649,491.73 848.649,493.396 847.5,495C 849.335,495.928 849.668,497.094 848.5,498.5C 849.38,500.429 850.38,502.263 851.5,504C 851.012,505.584 850.012,506.751 848.5,507.5C 849.908,508.243 851.241,509.077 852.5,510C 851.451,510.492 850.451,510.326 849.5,509.5C 848.204,511.336 847.37,513.336 847,515.5C 844.271,513.109 841.937,510.442 840,507.5C 836.147,508.591 832.814,507.591 830,504.5C 829.292,500.966 830.458,499.466 833.5,500C 832.333,498.833 831.167,497.667 830,496.5C 828.456,499.264 827.289,499.097 826.5,496C 825.365,495.251 824.365,495.417 823.5,496.5C 824.902,497.842 824.569,498.676 822.5,499C 823.624,499.249 824.624,499.749 825.5,500.5C 824.312,500.307 822.978,500.807 821.5,502C 822,502.5 822.5,503 823,503.5C 824.011,502.663 825.178,502.33 826.5,502.5C 826.587,505.598 826.087,505.932 825,503.5C 824.225,506.632 822.558,507.299 820,505.5C 818.596,505.509 817.43,506.009 816.5,507C 818.307,508.602 820.307,509.936 822.5,511C 817.922,512.519 817.589,514.519 821.5,517C 821.333,517.5 821.167,518 821,518.5C 820.282,517.549 819.449,517.383 818.5,518C 818.324,519.66 818.991,521.326 820.5,523C 818.282,524.091 816.116,525.257 814,526.5C 812.5,524.333 811,522.167 809.5,520C 812.335,518.56 812.835,516.727 811,514.5C 809.019,516.359 808.019,518.692 808,521.5C 807,520.167 806,520.167 805,521.5C 802.124,517.952 800.291,518.286 799.5,522.5C 796.653,518.888 796.986,515.721 800.5,513C 797.992,512.346 795.826,511.179 794,509.5C 792.174,511.179 790.008,512.346 787.5,513C 786.833,514.333 785.833,515.333 784.5,516C 788.386,516.579 788.386,517.412 784.5,518.5C 783.719,517.271 783.219,515.938 783,514.5C 782.577,515.956 781.744,516.456 780.5,516C 781.299,514.251 780.632,512.918 778.5,512C 778.957,511.586 779.291,511.086 779.5,510.5C 777.814,506.522 776.314,502.855 775,499.5C 774.251,501.68 773.751,504.013 773.5,506.5C 773.253,503.921 772.253,501.254 770.5,498.5C 769.252,499.04 768.085,499.707 767,500.5C 766.549,498.071 765.715,497.904 764.5,500C 765.167,500.667 765.833,501.333 766.5,502C 765.167,502 763.833,502 762.5,502C 761.241,502.923 759.908,503.757 758.5,504.5C 758.709,505.086 759.043,505.586 759.5,506C 758.234,506.309 757.067,506.809 756,507.5C 755.667,507.167 755.333,506.833 755,506.5C 753.796,507.471 753.296,508.471 753.5,509.5C 751.866,509.032 750.7,508.032 750,506.5C 749.107,507.711 748.274,507.711 747.5,506.5C 748.025,505.808 748.692,505.308 749.5,505C 748.368,502.256 746.868,499.756 745,497.5C 744.333,501.5 743.667,501.5 743,497.5C 741.307,498.184 739.807,499.184 738.5,500.5C 737.304,500.154 737.304,499.654 738.5,499C 737.216,498.316 736.049,498.483 735,499.5C 734.444,497.405 733.944,497.238 733.5,499C 735.145,500.032 735.478,501.199 734.5,502.5C 732.198,503.351 730.531,502.518 729.5,500C 729.667,499.5 729.833,499 730,498.5C 732.414,502.196 732.914,501.696 731.5,497C 732.167,496.667 732.833,496.333 733.5,496C 732.167,495 732.167,494 733.5,493C 732.167,492.667 730.833,492.333 729.5,492C 730.517,490.951 730.684,489.784 730,488.5C 729.29,489.973 728.124,490.64 726.5,490.5C 726.649,491.552 726.483,492.552 726,493.5C 723.79,489.43 723.29,489.597 724.5,494C 723.986,498.729 722.32,499.396 719.5,496C 720.711,495.107 720.711,494.274 719.5,493.5C 717.898,494.55 717.065,493.883 717,491.5C 714.601,494.001 712.101,494.001 709.5,491.5C 705.218,491.64 702.718,493.64 702,497.5C 702.85,496.576 703.85,496.576 705,497.5C 705.95,496.978 706.784,496.311 707.5,495.5C 707.833,495.833 708.167,496.167 708.5,496.5C 706.91,498.68 705.576,501.013 704.5,503.5C 703.709,502.934 703.709,502.101 704.5,501C 703.048,499.435 701.381,498.102 699.5,497C 700.654,496.086 700.487,495.253 699,494.5C 698.085,495.328 697.419,496.328 697,497.5C 696.692,496.692 696.192,496.025 695.5,495.5C 695.324,497.672 695.157,500.005 695,502.5C 694.667,501.5 694.333,500.5 694,499.5C 693.691,500.766 693.191,501.933 692.5,503C 692.833,503.333 693.167,503.667 693.5,504C 692.335,505.084 691.002,505.917 689.5,506.5C 688.924,495.113 688.091,483.447 687,471.5C 687.934,491.681 687.434,511.848 685.5,532C 686.956,535.625 687.622,539.959 687.5,545C 686.572,545.388 685.905,546.055 685.5,547C 686.899,549.206 688.566,551.206 690.5,553C 690.167,553.333 689.833,553.667 689.5,554C 691.532,556.299 692.199,558.799 691.5,561.5C 692.025,562.192 692.692,562.692 693.5,563C 691.028,564.917 688.361,566.417 685.5,567.5C 602.571,583.919 519.571,599.753 436.5,615C 439.613,604.363 442.947,593.863 446.5,583.5C 446.791,582.351 447.624,581.684 449,581.5C 526.843,566.721 604.677,551.887 682.5,537C 689.091,475.42 682.257,415.254 662,356.5C 635.129,280.539 593.963,213.705 538.5,156C 534.278,152.889 529.611,151.889 524.5,153C 523.667,153.833 522.833,154.667 522,155.5C 510.999,181.493 499.499,207.16 487.5,232.5C 416.756,215.142 357.256,233.475 309,287.5C 275.26,330.45 262.427,379.117 270.5,433.5C 268.343,428.36 267.176,421.694 267,413.5C 266.585,402.484 266.585,391.484 267,380.5C 266.798,382.256 266.298,383.922 265.5,385.5C 264.074,383.063 262.741,380.563 261.5,378C 262.449,377.383 263.282,377.549 264,378.5C 264.331,374.473 263.998,370.473 263,366.5C 260.46,368.02 257.627,369.02 254.5,369.5C 253.406,371.836 252.073,371.836 250.5,369.5C 247.917,370.464 247.417,371.798 249,373.5C 250.583,371.007 252.083,371.174 253.5,374C 252.833,376 251.5,377.333 249.5,378C 251.497,379.153 251.83,380.653 250.5,382.5C 249.749,381.624 249.249,380.624 249,379.5C 248.43,382.844 247.264,383.177 245.5,380.5C 244.188,381.46 242.854,381.294 241.5,380C 241.833,379.667 242.167,379.333 242.5,379C 239.157,374.445 234.324,370.945 228,368.5C 227.085,369.328 226.419,370.328 226,371.5C 225.667,371.167 225.333,370.833 225,370.5C 224.667,372.5 224.333,374.5 224,376.5C 222.277,373.756 219.777,372.422 216.5,372.5C 216.5,373.5 216.5,374.5 216.5,375.5C 215.325,375.281 214.325,375.614 213.5,376.5C 214.326,377.451 214.492,378.451 214,379.5C 212.192,375.963 210.692,372.297 209.5,368.5C 208.167,369.167 206.833,369.833 205.5,370.5C 205.579,369.07 205.246,367.736 204.5,366.5C 207.184,365.861 209.684,365.861 212,366.5C 212.492,365.451 212.326,364.451 211.5,363.5C 212.935,361.626 214.102,359.626 215,357.5C 215.718,358.451 216.551,358.617 217.5,358C 216.289,357.107 216.289,356.274 217.5,355.5C 219.969,357.007 222.135,356.673 224,354.5C 223.383,356.095 223.716,357.428 225,358.5C 225.667,356.5 226.333,354.5 227,352.5C 229.393,354.367 231.893,355.034 234.5,354.5C 233.485,353.319 232.319,352.319 231,351.5C 228.554,352.536 226.72,351.702 225.5,349C 226.433,347.392 225.767,346.559 223.5,346.5C 222.833,346.833 222.167,347.167 221.5,347.5C 222.544,349.768 222.711,352.101 222,354.5C 221.487,352.479 220.32,350.979 218.5,350C 220.481,349.395 220.815,348.395 219.5,347C 221.25,345.681 223.25,345.181 225.5,345.5C 225.719,344.325 225.386,343.325 224.5,342.5C 223.604,343.506 222.938,343.506 222.5,342.5C 223.641,341.575 223.641,340.741 222.5,340C 223.025,339.308 223.692,338.808 224.5,338.5C 227.057,339.407 229.557,340.407 232,341.5C 232.456,340.256 231.956,339.423 230.5,339C 232.888,338.697 235.055,337.863 237,336.5C 237.359,339.544 238.026,339.878 239,337.5C 240.241,338.938 240.741,340.438 240.5,342C 238.256,344.349 237.089,343.849 237,340.5C 234.47,345.8 235.636,347.133 240.5,344.5C 241.244,343.009 241.91,341.509 242.5,340C 245.53,339.712 248.364,339.545 251,339.5C 251.249,340.624 251.749,341.624 252.5,342.5C 253.833,341.167 255.167,341.167 256.5,342.5C 257.354,341.478 258.354,340.645 259.5,340C 258.66,338.334 259.16,338.167 261,339.5C 262.171,338.107 263.671,337.273 265.5,337C 264.322,336.033 262.989,335.533 261.5,335.5C 265.668,333.514 268.168,334.848 269,339.5C 270.015,336.898 271.848,335.065 274.5,334C 273.109,332.35 271.609,331.85 270,332.5C 271.09,329.912 270.59,327.579 268.5,325.5C 267.5,326.167 266.5,326.833 265.5,327.5C 262.857,322.219 262.023,322.552 263,328.5C 261.719,328.619 260.552,328.119 259.5,327C 260.308,326.692 260.975,326.192 261.5,325.5C 260.5,324.667 259.5,323.833 258.5,323C 259.678,322.033 261.011,321.533 262.5,321.5C 264.451,319.489 264.618,317.489 263,315.5C 262.577,316.956 261.744,317.456 260.5,317C 261.167,315.667 261.833,314.333 262.5,313C 261.833,312.667 261.167,312.333 260.5,312C 261.257,310.488 262.257,309.154 263.5,308C 260.722,302.888 256.889,298.721 252,295.5C 251.5,296 251,296.5 250.5,297C 252.259,298.008 253.426,299.508 254,301.5C 254.333,301.167 254.667,300.833 255,300.5C 256.074,301.618 257.24,302.618 258.5,303.5C 256.978,305.156 257.311,306.323 259.5,307C 257.307,311.429 254.973,311.429 252.5,307C 253.413,303.579 252.579,303.079 250,305.5C 249.576,301.81 248.742,301.643 247.5,305C 248.337,306.011 248.67,307.178 248.5,308.5C 247.178,308.67 246.011,308.337 245,307.5C 243.867,309.211 242.367,309.711 240.5,309C 241.833,308 241.833,307 240.5,306C 239.668,305.312 239.002,305.479 238.5,306.5C 239.711,307.72 239.711,308.887 238.5,310C 241.286,309.895 243.953,310.728 246.5,312.5C 246.843,315.856 245.843,317.856 243.5,318.5C 244.628,319.262 245.795,319.929 247,320.5C 246.189,318.209 247.023,316.375 249.5,315C 248.294,313.982 248.627,313.482 250.5,313.5C 253.063,313.737 253.063,314.237 250.5,315C 251.5,317.091 250.833,318.757 248.5,320C 249.126,320.75 249.626,321.584 250,322.5C 251.333,320.5 252.667,318.5 254,316.5C 255.852,318.23 255.686,319.396 253.5,320C 255.167,320.333 256.833,320.667 258.5,321C 255.258,321.283 254.924,322.117 257.5,323.5C 256.271,324.281 254.938,324.781 253.5,325C 254.604,326.131 254.271,326.965 252.5,327.5C 251.289,326.726 251.289,325.893 252.5,325C 252,324.833 251.5,324.667 251,324.5C 248.961,325.985 246.794,326.819 244.5,327C 245.696,327.654 245.696,328.154 244.5,328.5C 244.365,326.601 244.365,324.768 244.5,323C 245.449,322.383 246.282,322.549 247,323.5C 246.584,320.878 245.084,320.212 242.5,321.5C 241.833,320.833 241.167,320.167 240.5,319.5C 239.088,320.806 237.421,321.64 235.5,322C 235.833,322.333 236.167,322.667 236.5,323C 235.382,324.074 234.382,325.24 233.5,326.5C 232.289,325.726 232.289,324.893 233.5,324C 227.825,323.536 227.492,322.869 232.5,322C 232,321.5 231.5,321 231,320.5C 230,320.833 229,321.167 228,321.5C 226.795,320.929 225.628,320.262 224.5,319.5C 225.498,316.972 226.331,316.972 227,319.5C 227.92,319.07 228.753,318.736 229.5,318.5C 228.167,316.5 226.5,314.833 224.5,313.5C 225.025,312.808 225.692,312.308 226.5,312C 224.538,312.141 222.704,311.974 221,311.5C 220.055,311.905 219.388,312.572 219,313.5C 218.64,311.579 217.806,309.912 216.5,308.5C 215.833,308.833 215.167,309.167 214.5,309.5C 213.842,307.563 213.509,305.73 213.5,304C 216.514,302.49 219.181,300.49 221.5,298C 219.497,295.998 217.164,294.498 214.5,293.5C 215.898,291.202 217.731,290.536 220,291.5C 220.492,290.451 220.326,289.451 219.5,288.5C 222.469,287.332 222.802,285.999 220.5,284.5C 221.274,283.289 222.107,283.289 223,284.5C 223.121,282.273 223.954,280.44 225.5,279C 224.833,278.667 224.167,278.333 223.5,278C 226,276.833 227.833,275 229,272.5C 228.226,277.417 229.393,277.583 232.5,273C 230.686,269.858 228.519,267.025 226,264.5C 225.396,266.686 224.23,266.852 222.5,265C 223.328,264.085 224.328,263.419 225.5,263C 223.378,261.919 221.378,261.252 219.5,261C 221,260.167 222.167,259 223,257.5C 223.333,258.5 223.667,259.5 224,260.5C 224.5,259.333 225.333,258.5 226.5,258C 224.122,257.026 224.456,256.359 227.5,256C 223.639,254.665 223.639,253.499 227.5,252.5C 227.833,253.167 228.167,253.833 228.5,254.5C 229.793,252.783 231.626,251.116 234,249.5C 235.085,251.657 236.251,251.824 237.5,250C 234.833,249.333 234.833,248.667 237.5,248C 234.536,247.16 234.203,246.16 236.5,245C 235.104,240.874 235.77,240.541 238.5,244C 238.167,244.333 237.833,244.667 237.5,245C 240.32,245.736 242.32,247.402 243.5,250C 245.433,250.251 247.266,250.751 249,251.5C 250.364,250.742 251.531,251.242 252.5,253C 251.167,254 251.167,255 252.5,256C 250.321,256.442 249.655,257.442 250.5,259C 248.887,259.089 247.72,258.255 247,256.5C 246.349,258.235 246.515,259.902 247.5,261.5C 246.619,262.971 245.286,263.804 243.5,264C 245.791,264.015 247.958,264.182 250,264.5C 250.456,263.256 249.956,262.423 248.5,262C 249.421,260.244 250.588,260.077 252,261.5C 255.194,260.111 258.194,259.111 261,258.5C 260.302,260.764 260.802,262.597 262.5,264C 261.631,265.465 262.131,266.631 264,267.5C 264.5,267.167 265,266.833 265.5,266.5C 264.833,266.167 264.167,265.833 263.5,265.5C 265.305,263.253 266.638,260.753 267.5,258C 265.953,257.667 264.62,258.167 263.5,259.5C 262.153,256.954 263.153,254.787 266.5,253C 266.167,252.667 265.833,252.333 265.5,252C 266.672,251.581 267.672,250.915 268.5,250C 267.508,248.017 266.008,245.85 264,243.5C 262.493,245.008 260.827,246.341 259,247.5C 259.536,245.553 259.202,243.553 258,241.5C 257.085,242.328 256.419,243.328 256,244.5C 255.316,243.216 255.483,242.049 256.5,241C 252.645,234.614 253.978,231.781 260.5,232.5C 260.579,231.07 260.246,229.736 259.5,228.5C 260.59,226.997 261.757,226.664 263,227.5C 264.725,224.61 266.059,221.943 267,219.5C 267.667,217.833 267.667,216.167 267,214.5C 266.282,215.451 265.449,215.617 264.5,215C 265.701,214.097 266.535,212.931 267,211.5C 269.09,219.588 272.923,220.588 278.5,214.5C 277.894,212.36 278.227,210.193 279.5,208C 278.584,207.626 277.75,207.126 277,206.5C 276.577,207.956 275.744,208.456 274.5,208C 275.061,206.324 276.061,204.991 277.5,204C 276.833,203.667 276.167,203.333 275.5,203C 277.772,202.059 279.772,200.726 281.5,199C 280.24,197.887 279.073,197.72 278,198.5C 276.77,197.725 276.437,196.725 277,195.5C 278.57,196.358 280.237,197.025 282,197.5C 283.011,197.108 283.511,196.441 283.5,195.5C 284.192,196.025 284.692,196.692 285,197.5C 285.699,195.926 285.365,194.593 284,193.5C 283.667,193.833 283.333,194.167 283,194.5C 282.749,192.567 282.249,190.734 281.5,189C 282.667,188.5 283.5,187.667 284,186.5C 284.333,186.833 284.667,187.167 285,187.5C 286.916,185.475 288.916,182.808 291,179.5C 293.313,181.037 295.813,181.537 298.5,181C 297.234,179.017 295.568,178.017 293.5,178C 294.696,178.654 294.696,179.154 293.5,179.5C 292.833,178.5 292.167,177.5 291.5,176.5C 291.167,177.167 290.833,177.833 290.5,178.5C 289.713,177.758 289.047,176.925 288.5,176C 290.753,174.251 293.086,172.751 295.5,171.5C 295.523,169.073 296.023,166.74 297,164.5C 297.667,165.833 298.333,167.167 299,168.5C 299.852,164.945 300.519,161.612 301,158.5C 302,159.833 303,159.833 304,158.5C 304.903,159.701 306.069,160.535 307.5,161C 307.017,164.462 305.85,164.962 304,162.5C 302.24,165.155 302.74,166.488 305.5,166.5C 302.494,167.52 301.327,169.52 302,172.5C 302.667,171.167 303.333,169.833 304,168.5C 304.273,170.329 305.107,171.829 306.5,173C 303.895,173.026 302.729,174.193 303,176.5C 305.266,175.044 307.766,174.21 310.5,174C 312.891,172.691 312.891,171.691 310.5,171C 311.471,169.796 312.471,169.296 313.5,169.5C 313.291,168.914 312.957,168.414 312.5,168C 313.833,167.333 315.167,166.667 316.5,166C 314.431,165.676 314.098,164.842 315.5,163.5C 312.99,160.166 313.99,158.666 318.5,159C 318.034,160.299 318.034,161.799 318.5,163.5C 321.932,164.984 324.765,167.318 327,170.5C 328.161,169.005 329.327,167.505 330.5,166C 328.488,164.848 328.322,163.682 330,162.5C 331.011,163.337 332.178,163.67 333.5,163.5C 333.714,165.144 333.38,166.644 332.5,168C 334.271,170.113 335.771,169.947 337,167.5C 338.58,170.254 339.746,170.088 340.5,167C 339.373,165.943 338.873,164.777 339,163.5C 340.398,164.051 341.732,164.384 343,164.5C 343.333,163.833 343.667,163.167 344,162.5C 345,164.833 346,167.167 347,169.5C 345.876,164.277 348.043,161.61 353.5,161.5C 353.649,160.448 353.483,159.448 353,158.5C 351.246,160.25 349.079,160.917 346.5,160.5C 346.966,158.799 346.966,157.299 346.5,156C 347.766,155.691 348.933,155.191 350,154.5C 352.11,156.838 354.277,156.671 356.5,154C 356,153.5 355.5,153 355,152.5C 354.577,153.956 353.744,154.456 352.5,154C 354.517,150.954 356.517,147.954 358.5,145C 355.704,142.694 353.537,143.194 352,146.5C 351.195,144.099 350.362,144.266 349.5,147C 352.279,147.149 352.779,147.983 351,149.5C 349.133,149.686 347.133,149.353 345,148.5C 344.454,149.289 343.787,150.289 343,151.5C 341.647,150.315 340.48,148.981 339.5,147.5C 336.078,150.29 335.411,150.123 337.5,147C 337.65,144.762 337.15,142.595 336,140.5C 337.507,141.535 339.007,141.368 340.5,140C 339.897,138.175 339.23,136.341 338.5,134.5C 336.703,137.096 335.369,136.763 334.5,133.5C 334.709,132.914 335.043,132.414 335.5,132C 333.913,131.138 332.246,130.471 330.5,130C 332.833,128.333 335.167,126.667 337.5,125C 336.359,124.259 336.359,123.425 337.5,122.5C 334.5,121.5 332.5,119.5 331.5,116.5C 330.038,117.471 328.705,117.138 327.5,115.5C 330.118,115.457 332.785,115.123 335.5,114.5C 336.806,115.912 337.64,117.579 338,119.5C 338.273,117.899 338.773,116.399 339.5,115C 335.728,113.611 335.728,112.611 339.5,112C 338.484,111.481 337.818,110.647 337.5,109.5C 341.786,105.875 341.12,103.375 335.5,102C 337.044,101.71 338.377,101.044 339.5,100C 338.551,99.3828 337.718,99.5494 337,100.5C 336.333,99.5 336.333,98.5 337,97.5C 338.996,97.9963 340.663,98.9963 342,100.5C 343.204,99.5294 343.704,98.5294 343.5,97.5C 344.287,98.2421 344.953,99.0754 345.5,100C 344.209,103.025 344.876,103.359 347.5,101C 346.137,98.8707 346.471,98.3707 348.5,99.5C 349.681,98.4855 350.681,97.3188 351.5,96C 350.305,94.4675 350.305,92.9675 351.5,91.5C 350.169,90.4078 349.336,89.0745 349,87.5C 347.887,88.7604 347.72,89.927 348.5,91C 347.167,91.6667 345.833,92.3333 344.5,93C 345.167,93.3333 345.833,93.6667 346.5,94C 344.833,94.6667 343.167,94.6667 341.5,94C 344.116,91.8781 346.116,89.8781 347.5,88C 346.167,87 346.167,86 347.5,85C 346.833,84.3333 346.167,83.6667 345.5,83C 346.471,81.7964 347.471,81.2964 348.5,81.5C 346.071,80.1449 344.738,78.4783 344.5,76.5C 345.582,76.2514 346.915,76.0848 348.5,76C 346.291,75.043 346.457,73.8764 349,72.5C 349.49,73.7932 349.657,75.1266 349.5,76.5C 351.124,76.3601 352.29,77.0267 353,78.5C 354.986,75.0701 356.986,75.4034 359,79.5C 359.741,78.3595 360.575,78.3595 361.5,79.5C 362.696,79.1543 362.696,78.6543 361.5,78C 362.833,77.3333 364.167,76.6667 365.5,76C 363.196,75.1048 360.862,74.2715 358.5,73.5C 360.022,71.8437 359.689,70.677 357.5,70C 358.167,69.6667 358.833,69.3333 359.5,69C 359.5,67.6667 359.5,66.3333 359.5,65C 361.163,64.7351 362.663,65.2351 364,66.5C 364.692,65.9747 365.192,65.3081 365.5,64.5C 363.958,64.3061 362.625,63.1394 361.5,61C 363.255,60.2801 364.089,59.1134 364,57.5C 363.086,58.6537 362.253,58.487 361.5,57C 362.253,55.513 363.086,55.3463 364,56.5C 364.199,54.5975 365.033,53.0975 366.5,52C 364.36,49.9336 363.693,47.6002 364.5,45C 362.813,45.1927 361.479,46.1927 360.5,48C 361.956,48.4226 362.456,49.2559 362,50.5C 359.684,49.4776 359.184,47.9776 360.5,46C 359.833,45.3333 359.167,44.6667 358.5,44C 359.833,43 359.833,42 358.5,41C 360.905,38.9676 360.405,37.4676 357,36.5C 356.667,37.1667 356.333,37.8333 356,38.5C 354.512,36.1798 352.679,36.0131 350.5,38C 349.5,39.6667 348.167,41 346.5,42C 350.922,43.3865 351.422,45.5531 348,48.5C 347.667,47.8333 347.333,47.1667 347,46.5C 343.386,49.2223 342.219,48.3889 343.5,44C 342.289,42.4222 340.955,42.2555 339.5,43.5C 341.022,45.1563 340.689,46.323 338.5,47C 336.219,46.0195 333.885,45.6861 331.5,46C 332.634,44.984 332.301,44.3173 330.5,44C 332.883,43.935 333.55,43.1017 332.5,41.5C 334.657,40.2096 336.99,39.3763 339.5,39C 339,38.5 338.5,38 338,37.5C 336.887,38.7111 335.72,38.7111 334.5,37.5C 334.167,38.1667 333.833,38.8333 333.5,39.5C 332.808,38.9747 332.308,38.3081 332,37.5C 330.961,40.8768 329.461,41.5435 327.5,39.5C 326.914,39.7093 326.414,40.0426 326,40.5C 323.649,39.2857 321.149,38.4523 318.5,38C 319.604,36.8687 319.271,36.0354 317.5,35.5C 314.064,36.6029 312.064,38.9363 311.5,42.5C 312.274,43.7112 313.107,43.7112 314,42.5C 314.27,43.9323 313.604,44.9323 312,45.5C 310.037,40.0796 307.537,39.5796 304.5,44C 305.956,44.4226 306.456,45.2559 306,46.5C 304.475,46.8881 302.808,46.8881 301,46.5C 300.217,48.3185 300.717,49.6518 302.5,50.5C 303.192,49.9747 303.692,49.3081 304,48.5C 304.667,50.5 304.667,52.5 304,54.5C 303.086,53.3463 302.253,53.513 301.5,55C 303.754,55.6237 305.421,56.957 306.5,59C 305.833,59.6667 305.167,60.3333 304.5,61C 306.158,61.7253 306.658,62.892 306,64.5C 304.703,63.2164 303.536,63.3831 302.5,65C 303.253,66.487 304.086,66.6537 305,65.5C 305.269,68.2798 304.102,70.4464 301.5,72C 302.717,73.6477 303.55,75.481 304,77.5C 304.667,76.1667 305.333,74.8333 306,73.5C 306.414,73.9574 306.914,74.2907 307.5,74.5C 308.62,73.1666 309.953,72.6666 311.5,73C 310.167,74 310.167,75 311.5,76C 306.61,76.2381 306.61,76.9048 311.5,78C 312.191,79.0674 312.691,80.2341 313,81.5C 313.914,80.3463 314.747,80.513 315.5,82C 313.95,84.459 311.95,85.1257 309.5,84C 310.96,84.8113 311.293,85.6446 310.5,86.5C 308.483,85.3271 307.816,83.8271 308.5,82C 306.286,81.5403 305.619,82.207 306.5,84C 305.833,85 305.167,86 304.5,87C 306.017,88.6851 307.684,90.1851 309.5,91.5C 308.833,93.5 308.167,95.5 307.5,97.5C 310.316,98.677 309.983,100.344 306.5,102.5C 305.904,101.284 305.737,99.9506 306,98.5C 304.122,100.698 301.955,100.864 299.5,99C 299.577,96.8891 299.911,94.8891 300.5,93C 299.874,92.2496 299.374,91.4162 299,90.5C 293.468,95.5769 289.801,94.5769 288,87.5C 286.513,88.2529 286.346,89.0862 287.5,90C 285.559,90.7429 283.726,90.5762 282,89.5C 281.517,90.448 281.351,91.448 281.5,92.5C 278.203,92.3287 277.869,92.9954 280.5,94.5C 280.154,95.6956 279.654,95.6956 279,94.5C 278.667,95.5 278.333,96.5 278,97.5C 276.987,92.5207 275.154,91.854 272.5,95.5C 274.086,98.2163 273.753,100.55 271.5,102.5C 271.693,101.312 271.193,99.9785 270,98.5C 268.667,99.1667 267.333,99.8333 266,100.5C 265.363,98.6969 264.197,97.3636 262.5,96.5C 263.999,95.0962 263.666,94.4296 261.5,94.5C 260.833,94.6667 260.167,94.8333 259.5,95C 260.061,96.676 261.061,98.0094 262.5,99C 262.167,99.3333 261.833,99.6667 261.5,100C 262.956,100.423 263.456,101.256 263,102.5C 262,102.167 261,101.833 260,101.5C 259.549,103.929 258.715,104.096 257.5,102C 259.211,100.867 259.711,99.3668 259,97.5C 258.028,99.3049 256.861,100.972 255.5,102.5C 254.522,102.023 253.689,101.357 253,100.5C 249.89,101.673 249.723,101.173 252.5,99C 251.5,98.6667 250.5,98.3333 249.5,98C 249.501,96.6012 249.835,95.1012 250.5,93.5C 249.833,92.5 249.167,91.5 248.5,90.5C 249.427,89.0944 250.427,87.5944 251.5,86C 252.833,85.6667 254.167,85.3333 255.5,85C 252.971,84.2638 250.471,82.7638 248,80.5C 248.617,82.0948 248.284,83.4281 247,84.5C 246.104,81.8596 244.604,79.693 242.5,78C 243.833,77 243.833,76 242.5,75C 243.167,74.6667 243.833,74.3333 244.5,74C 242.321,73.5581 241.655,72.5581 242.5,71C 241.551,70.3828 240.718,70.5494 240,71.5C 239.667,70.5 239.333,69.5 239,68.5C 234.512,69.7691 234.512,68.7691 239,65.5C 240.842,70.13 243.509,70.4634 247,66.5C 247.163,68.3867 246.329,69.8867 244.5,71C 245.653,72.883 247.319,73.7163 249.5,73.5C 249.343,72.1266 249.51,70.7932 250,69.5C 251.016,70.6341 251.683,70.3008 252,68.5C 253.973,69.6399 255.807,70.9733 257.5,72.5C 256.515,74.0983 256.349,75.765 257,77.5C 257.92,74.8987 258.587,72.2321 259,69.5C 259.579,73.3863 260.412,73.3863 261.5,69.5C 260.96,68.2519 260.293,67.0852 259.5,66C 260.5,65.5 261.5,65 262.5,64.5C 262.205,65.8255 262.705,67.1588 264,68.5C 264.623,64.0684 265.623,63.7351 267,67.5C 267.957,65.2908 269.124,65.4575 270.5,68C 268.071,68.4512 267.904,69.2845 270,70.5C 271.773,68.3772 272.94,66.3772 273.5,64.5C 274.267,68.3419 276.6,70.0086 280.5,69.5C 280.64,71.1238 279.973,72.2904 278.5,73C 279.667,73.5 280.5,74.3333 281,75.5C 282.487,74.7471 282.654,73.9138 281.5,73C 283.891,72.3086 283.891,71.3086 281.5,70C 283.841,68.5996 286.174,68.0996 288.5,68.5C 287.478,67.646 286.645,66.646 286,65.5C 285.667,66.1667 285.333,66.8333 285,67.5C 284,66.1667 283,66.1667 282,67.5C 281.493,66.0039 281.993,64.8373 283.5,64C 282.833,63.6667 282.167,63.3333 281.5,63C 282.833,62.3333 282.833,61.6667 281.5,61C 283.854,59.622 283.854,58.122 281.5,56.5C 282.442,53.163 281.442,50.3296 278.5,48C 278.833,47.6667 279.167,47.3333 279.5,47C 276.5,45.8333 273.5,44.6667 270.5,43.5C 269.571,42.3112 269.238,40.9778 269.5,39.5C 266.402,39.4125 266.068,39.9125 268.5,41C 265.161,42.7462 262.995,41.5795 262,37.5C 261.08,40.3083 261.913,42.4749 264.5,44C 263.333,45.5 262.167,47 261,48.5C 259.309,46.2913 259.476,44.4579 261.5,43C 259.711,42.4795 258.044,42.8129 256.5,44C 258.301,44.3173 258.634,44.984 257.5,46C 256.552,46.4828 255.552,46.6495 254.5,46.5C 253.822,42.7273 255.156,39.894 258.5,38C 257.234,37.6905 256.067,37.1905 255,36.5C 254.667,36.8333 254.333,37.1667 254,37.5C 253.544,36.2559 254.044,35.4226 255.5,35C 253.915,34.9152 252.582,34.7486 251.5,34.5C 251.808,33.6919 252.308,33.0253 253,32.5C 253.718,33.4506 254.551,33.6172 255.5,33C 253.718,32.1859 252.218,31.0192 251,29.5C 249.817,30.731 248.651,30.731 247.5,29.5C 247.709,28.914 248.043,28.414 248.5,28C 247.328,27.5814 246.328,26.9147 245.5,26C 248.694,22.759 251.86,20.259 255,18.5C 255.456,19.7441 254.956,20.5774 253.5,21C 254.833,21.3333 256.167,21.6667 257.5,22C 256.72,23.073 256.887,24.2396 258,25.5C 258.556,23.4049 259.056,23.2382 259.5,25C 258.576,26.15 258.576,27.15 259.5,28C 256.006,29.7505 255.839,31.5838 259,33.5C 260.695,31.2068 261.362,28.8734 261,26.5C 261.75,25.8742 262.584,25.3742 263.5,25C 262.376,24.7508 261.376,24.2508 260.5,23.5C 261.002,22.2836 261.335,21.1169 261.5,20C 260.551,19.3828 259.718,19.5494 259,20.5C 257.148,18.7703 257.314,17.6036 259.5,17C 256.159,15.4719 256.159,13.4719 259.5,11C 257.159,8.60971 256.659,6.10971 258,3.5C 258.333,4.16667 258.667,4.83333 259,5.5C 259.49,3.45464 259.323,1.45464 258.5,-0.5 Z"/></g>
<g><path style="opacity:1" fill="#fdf3e8" d="M -0.5,-0.5 C 85.8333,-0.5 172.167,-0.5 258.5,-0.5C 259.323,1.45464 259.49,3.45464 259,5.5C 258.667,4.83333 258.333,4.16667 258,3.5C 256.659,6.10971 257.159,8.60971 259.5,11C 256.159,13.4719 256.159,15.4719 259.5,17C 257.314,17.6036 257.148,18.7703 259,20.5C 259.718,19.5494 260.551,19.3828 261.5,20C 261.335,21.1169 261.002,22.2836 260.5,23.5C 261.376,24.2508 262.376,24.7508 263.5,25C 262.584,25.3742 261.75,25.8742 261,26.5C 261.362,28.8734 260.695,31.2068 259,33.5C 255.839,31.5838 256.006,29.7505 259.5,28C 258.576,27.15 258.576,26.15 259.5,25C 259.056,23.2382 258.556,23.4049 258,25.5C 256.887,24.2396 256.72,23.073 257.5,22C 256.167,21.6667 254.833,21.3333 253.5,21C 254.956,20.5774 255.456,19.7441 255,18.5C 251.86,20.259 248.694,22.759 245.5,26C 246.328,26.9147 247.328,27.5814 248.5,28C 248.043,28.414 247.709,28.914 247.5,29.5C 248.651,30.731 249.817,30.731 251,29.5C 252.218,31.0192 253.718,32.1859 255.5,33C 254.551,33.6172 253.718,33.4506 253,32.5C 252.308,33.0253 251.808,33.6919 251.5,34.5C 252.582,34.7486 253.915,34.9152 255.5,35C 254.044,35.4226 253.544,36.2559 254,37.5C 254.333,37.1667 254.667,36.8333 255,36.5C 256.067,37.1905 257.234,37.6905 258.5,38C 255.156,39.894 253.822,42.7273 254.5,46.5C 255.552,46.6495 256.552,46.4828 257.5,46C 258.634,44.984 258.301,44.3173 256.5,44C 258.044,42.8129 259.711,42.4795 261.5,43C 259.476,44.4579 259.309,46.2913 261,48.5C 262.167,47 263.333,45.5 264.5,44C 261.913,42.4749 261.08,40.3083 262,37.5C 262.995,41.5795 265.161,42.7462 268.5,41C 266.068,39.9125 266.402,39.4125 269.5,39.5C 269.238,40.9778 269.571,42.3112 270.5,43.5C 273.5,44.6667 276.5,45.8333 279.5,47C 279.167,47.3333 278.833,47.6667 278.5,48C 281.442,50.3296 282.442,53.163 281.5,56.5C 283.854,58.122 283.854,59.622 281.5,61C 282.833,61.6667 282.833,62.3333 281.5,63C 282.167,63.3333 282.833,63.6667 283.5,64C 281.993,64.8373 281.493,66.0039 282,67.5C 283,66.1667 284,66.1667 285,67.5C 285.333,66.8333 285.667,66.1667 286,65.5C 286.645,66.646 287.478,67.646 288.5,68.5C 286.174,68.0996 283.841,68.5996 281.5,70C 283.891,71.3086 283.891,72.3086 281.5,73C 282.654,73.9138 282.487,74.7471 281,75.5C 280.5,74.3333 279.667,73.5 278.5,73C 279.973,72.2904 280.64,71.1238 280.5,69.5C 276.6,70.0086 274.267,68.3419 273.5,64.5C 272.94,66.3772 271.773,68.3772 270,70.5C 267.904,69.2845 268.071,68.4512 270.5,68C 269.124,65.4575 267.957,65.2908 267,67.5C 265.623,63.7351 264.623,64.0684 264,68.5C 262.705,67.1588 262.205,65.8255 262.5,64.5C 261.5,65 260.5,65.5 259.5,66C 260.293,67.0852 260.96,68.2519 261.5,69.5C 260.412,73.3863 259.579,73.3863 259,69.5C 258.587,72.2321 257.92,74.8987 257,77.5C 256.349,75.765 256.515,74.0983 257.5,72.5C 255.807,70.9733 253.973,69.6399 252,68.5C 251.683,70.3008 251.016,70.6341 250,69.5C 249.51,70.7932 249.343,72.1266 249.5,73.5C 247.319,73.7163 245.653,72.883 244.5,71C 246.329,69.8867 247.163,68.3867 247,66.5C 243.509,70.4634 240.842,70.13 239,65.5C 234.512,68.7691 234.512,69.7691 239,68.5C 239.333,69.5 239.667,70.5 240,71.5C 240.718,70.5494 241.551,70.3828 242.5,71C 241.655,72.5581 242.321,73.5581 244.5,74C 243.833,74.3333 243.167,74.6667 242.5,75C 243.833,76 243.833,77 242.5,78C 244.604,79.693 246.104,81.8596 247,84.5C 248.284,83.4281 248.617,82.0948 248,80.5C 250.471,82.7638 252.971,84.2638 255.5,85C 254.167,85.3333 252.833,85.6667 251.5,86C 250.427,87.5944 249.427,89.0944 248.5,90.5C 249.167,91.5 249.833,92.5 250.5,93.5C 249.835,95.1012 249.501,96.6012 249.5,98C 250.5,98.3333 251.5,98.6667 252.5,99C 249.723,101.173 249.89,101.673 253,100.5C 253.689,101.357 254.522,102.023 255.5,102.5C 256.861,100.972 258.028,99.3049 259,97.5C 259.711,99.3668 259.211,100.867 257.5,102C 258.715,104.096 259.549,103.929 260,101.5C 261,101.833 262,102.167 263,102.5C 263.456,101.256 262.956,100.423 261.5,100C 261.833,99.6667 262.167,99.3333 262.5,99C 261.061,98.0094 260.061,96.676 259.5,95C 260.167,94.8333 260.833,94.6667 261.5,94.5C 263.666,94.4296 263.999,95.0962 262.5,96.5C 264.197,97.3636 265.363,98.6969 266,100.5C 267.333,99.8333 268.667,99.1667 270,98.5C 271.193,99.9785 271.693,101.312 271.5,102.5C 273.753,100.55 274.086,98.2163 272.5,95.5C 275.154,91.854 276.987,92.5207 278,97.5C 278.333,96.5 278.667,95.5 279,94.5C 279.654,95.6956 280.154,95.6956 280.5,94.5C 277.869,92.9954 278.203,92.3287 281.5,92.5C 281.351,91.448 281.517,90.448 282,89.5C 283.726,90.5762 285.559,90.7429 287.5,90C 286.346,89.0862 286.513,88.2529 288,87.5C 289.801,94.5769 293.468,95.5769 299,90.5C 299.374,91.4162 299.874,92.2496 300.5,93C 299.911,94.8891 299.577,96.8891 299.5,99C 301.955,100.864 304.122,100.698 306,98.5C 305.737,99.9506 305.904,101.284 306.5,102.5C 309.983,100.344 310.316,98.677 307.5,97.5C 308.167,95.5 308.833,93.5 309.5,91.5C 307.684,90.1851 306.017,88.6851 304.5,87C 305.167,86 305.833,85 306.5,84C 305.619,82.207 306.286,81.5403 308.5,82C 307.816,83.8271 308.483,85.3271 310.5,86.5C 311.293,85.6446 310.96,84.8113 309.5,84C 311.95,85.1257 313.95,84.459 315.5,82C 314.747,80.513 313.914,80.3463 313,81.5C 312.691,80.2341 312.191,79.0674 311.5,78C 306.61,76.9048 306.61,76.2381 311.5,76C 310.167,75 310.167,74 311.5,73C 309.953,72.6666 308.62,73.1666 307.5,74.5C 306.914,74.2907 306.414,73.9574 306,73.5C 305.333,74.8333 304.667,76.1667 304,77.5C 303.55,75.481 302.717,73.6477 301.5,72C 304.102,70.4464 305.269,68.2798 305,65.5C 304.086,66.6537 303.253,66.487 302.5,65C 303.536,63.3831 304.703,63.2164 306,64.5C 306.658,62.892 306.158,61.7253 304.5,61C 305.167,60.3333 305.833,59.6667 306.5,59C 305.421,56.957 303.754,55.6237 301.5,55C 302.253,53.513 303.086,53.3463 304,54.5C 304.667,52.5 304.667,50.5 304,48.5C 303.692,49.3081 303.192,49.9747 302.5,50.5C 300.717,49.6518 300.217,48.3185 301,46.5C 302.808,46.8881 304.475,46.8881 306,46.5C 306.456,45.2559 305.956,44.4226 304.5,44C 307.537,39.5796 310.037,40.0796 312,45.5C 313.604,44.9323 314.27,43.9323 314,42.5C 313.107,43.7112 312.274,43.7112 311.5,42.5C 312.064,38.9363 314.064,36.6029 317.5,35.5C 319.271,36.0354 319.604,36.8687 318.5,38C 321.149,38.4523 323.649,39.2857 326,40.5C 326.414,40.0426 326.914,39.7093 327.5,39.5C 329.461,41.5435 330.961,40.8768 332,37.5C 332.308,38.3081 332.808,38.9747 333.5,39.5C 333.833,38.8333 334.167,38.1667 334.5,37.5C 335.72,38.7111 336.887,38.7111 338,37.5C 338.5,38 339,38.5 339.5,39C 336.99,39.3763 334.657,40.2096 332.5,41.5C 333.55,43.1017 332.883,43.935 330.5,44C 332.301,44.3173 332.634,44.984 331.5,46C 333.885,45.6861 336.219,46.0195 338.5,47C 340.689,46.323 341.022,45.1563 339.5,43.5C 340.955,42.2555 342.289,42.4222 343.5,44C 342.219,48.3889 343.386,49.2223 347,46.5C 347.333,47.1667 347.667,47.8333 348,48.5C 351.422,45.5531 350.922,43.3865 346.5,42C 348.167,41 349.5,39.6667 350.5,38C 352.679,36.0131 354.512,36.1798 356,38.5C 356.333,37.8333 356.667,37.1667 357,36.5C 360.405,37.4676 360.905,38.9676 358.5,41C 359.833,42 359.833,43 358.5,44C 359.167,44.6667 359.833,45.3333 360.5,46C 359.184,47.9776 359.684,49.4776 362,50.5C 362.456,49.2559 361.956,48.4226 360.5,48C 361.479,46.1927 362.813,45.1927 364.5,45C 363.693,47.6002 364.36,49.9336 366.5,52C 365.033,53.0975 364.199,54.5975 364,56.5C 363.086,55.3463 362.253,55.513 361.5,57C 362.253,58.487 363.086,58.6537 364,57.5C 364.089,59.1134 363.255,60.2801 361.5,61C 362.625,63.1394 363.958,64.3061 365.5,64.5C 365.192,65.3081 364.692,65.9747 364,66.5C 362.663,65.2351 361.163,64.7351 359.5,65C 359.5,66.3333 359.5,67.6667 359.5,69C 358.833,69.3333 358.167,69.6667 357.5,70C 359.689,70.677 360.022,71.8437 358.5,73.5C 360.862,74.2715 363.196,75.1048 365.5,76C 364.167,76.6667 362.833,77.3333 361.5,78C 362.696,78.6543 362.696,79.1543 361.5,79.5C 360.575,78.3595 359.741,78.3595 359,79.5C 356.986,75.4034 354.986,75.0701 353,78.5C 352.29,77.0267 351.124,76.3601 349.5,76.5C 349.657,75.1266 349.49,73.7932 349,72.5C 346.457,73.8764 346.291,75.043 348.5,76C 346.915,76.0848 345.582,76.2514 344.5,76.5C 344.738,78.4783 346.071,80.1449 348.5,81.5C 347.471,81.2964 346.471,81.7964 345.5,83C 346.167,83.6667 346.833,84.3333 347.5,85C 346.167,86 346.167,87 347.5,88C 346.116,89.8781 344.116,91.8781 341.5,94C 343.167,94.6667 344.833,94.6667 346.5,94C 345.833,93.6667 345.167,93.3333 344.5,93C 345.833,92.3333 347.167,91.6667 348.5,91C 347.72,89.927 347.887,88.7604 349,87.5C 349.336,89.0745 350.169,90.4078 351.5,91.5C 350.305,92.9675 350.305,94.4675 351.5,96C 350.681,97.3188 349.681,98.4855 348.5,99.5C 346.471,98.3707 346.137,98.8707 347.5,101C 344.876,103.359 344.209,103.025 345.5,100C 344.953,99.0754 344.287,98.2421 343.5,97.5C 343.704,98.5294 343.204,99.5294 342,100.5C 340.663,98.9963 338.996,97.9963 337,97.5C 336.333,98.5 336.333,99.5 337,100.5C 337.718,99.5494 338.551,99.3828 339.5,100C 338.377,101.044 337.044,101.71 335.5,102C 341.12,103.375 341.786,105.875 337.5,109.5C 337.818,110.647 338.484,111.481 339.5,112C 335.728,112.611 335.728,113.611 339.5,115C 338.773,116.399 338.273,117.899 338,119.5C 337.64,117.579 336.806,115.912 335.5,114.5C 332.785,115.123 330.118,115.457 327.5,115.5C 328.705,117.138 330.038,117.471 331.5,116.5C 332.5,119.5 334.5,121.5 337.5,122.5C 336.359,123.425 336.359,124.259 337.5,125C 335.167,126.667 332.833,128.333 330.5,130C 332.246,130.471 333.913,131.138 335.5,132C 335.043,132.414 334.709,132.914 334.5,133.5C 335.369,136.763 336.703,137.096 338.5,134.5C 339.23,136.341 339.897,138.175 340.5,140C 339.007,141.368 337.507,141.535 336,140.5C 337.15,142.595 337.65,144.762 337.5,147C 335.411,150.123 336.078,150.29 339.5,147.5C 340.48,148.981 341.647,150.315 343,151.5C 343.787,150.289 344.454,149.289 345,148.5C 347.133,149.353 349.133,149.686 351,149.5C 352.779,147.983 352.279,147.149 349.5,147C 350.362,144.266 351.195,144.099 352,146.5C 353.537,143.194 355.704,142.694 358.5,145C 356.517,147.954 354.517,150.954 352.5,154C 353.744,154.456 354.577,153.956 355,152.5C 355.5,153 356,153.5 356.5,154C 354.277,156.671 352.11,156.838 350,154.5C 348.933,155.191 347.766,155.691 346.5,156C 346.966,157.299 346.966,158.799 346.5,160.5C 349.079,160.917 351.246,160.25 353,158.5C 353.483,159.448 353.649,160.448 353.5,161.5C 348.043,161.61 345.876,164.277 347,169.5C 346,167.167 345,164.833 344,162.5C 343.667,163.167 343.333,163.833 343,164.5C 341.732,164.384 340.398,164.051 339,163.5C 338.873,164.777 339.373,165.943 340.5,167C 339.746,170.088 338.58,170.254 337,167.5C 335.771,169.947 334.271,170.113 332.5,168C 333.38,166.644 333.714,165.144 333.5,163.5C 332.178,163.67 331.011,163.337 330,162.5C 328.322,163.682 328.488,164.848 330.5,166C 329.327,167.505 328.161,169.005 327,170.5C 324.765,167.318 321.932,164.984 318.5,163.5C 318.034,161.799 318.034,160.299 318.5,159C 313.99,158.666 312.99,160.166 315.5,163.5C 314.098,164.842 314.431,165.676 316.5,166C 315.167,166.667 313.833,167.333 312.5,168C 312.957,168.414 313.291,168.914 313.5,169.5C 312.471,169.296 311.471,169.796 310.5,171C 312.891,171.691 312.891,172.691 310.5,174C 307.766,174.21 305.266,175.044 303,176.5C 302.729,174.193 303.895,173.026 306.5,173C 305.107,171.829 304.273,170.329 304,168.5C 303.333,169.833 302.667,171.167 302,172.5C 301.327,169.52 302.494,167.52 305.5,166.5C 302.74,166.488 302.24,165.155 304,162.5C 305.85,164.962 307.017,164.462 307.5,161C 306.069,160.535 304.903,159.701 304,158.5C 303,159.833 302,159.833 301,158.5C 300.519,161.612 299.852,164.945 299,168.5C 298.333,167.167 297.667,165.833 297,164.5C 296.023,166.74 295.523,169.073 295.5,171.5C 293.086,172.751 290.753,174.251 288.5,176C 289.047,176.925 289.713,177.758 290.5,178.5C 290.833,177.833 291.167,177.167 291.5,176.5C 292.167,177.5 292.833,178.5 293.5,179.5C 294.696,179.154 294.696,178.654 293.5,178C 295.568,178.017 297.234,179.017 298.5,181C 295.813,181.537 293.313,181.037 291,179.5C 288.916,182.808 286.916,185.475 285,187.5C 284.667,187.167 284.333,186.833 284,186.5C 283.5,187.667 282.667,188.5 281.5,189C 282.249,190.734 282.749,192.567 283,194.5C 283.333,194.167 283.667,193.833 284,193.5C 285.365,194.593 285.699,195.926 285,197.5C 284.692,196.692 284.192,196.025 283.5,195.5C 283.511,196.441 283.011,197.108 282,197.5C 280.237,197.025 278.57,196.358 277,195.5C 276.437,196.725 276.77,197.725 278,198.5C 279.073,197.72 280.24,197.887 281.5,199C 279.772,200.726 277.772,202.059 275.5,203C 276.167,203.333 276.833,203.667 277.5,204C 276.061,204.991 275.061,206.324 274.5,208C 275.744,208.456 276.577,207.956 277,206.5C 277.75,207.126 278.584,207.626 279.5,208C 278.227,210.193 277.894,212.36 278.5,214.5C 272.923,220.588 269.09,219.588 267,211.5C 266.535,212.931 265.701,214.097 264.5,215C 265.449,215.617 266.282,215.451 267,214.5C 267.667,216.167 267.667,217.833 267,219.5C 266.059,221.943 264.725,224.61 263,227.5C 261.757,226.664 260.59,226.997 259.5,228.5C 260.246,229.736 260.579,231.07 260.5,232.5C 253.978,231.781 252.645,234.614 256.5,241C 255.483,242.049 255.316,243.216 256,244.5C 256.419,243.328 257.085,242.328 258,241.5C 259.202,243.553 259.536,245.553 259,247.5C 260.827,246.341 262.493,245.008 264,243.5C 266.008,245.85 267.508,248.017 268.5,250C 267.672,250.915 266.672,251.581 265.5,252C 265.833,252.333 266.167,252.667 266.5,253C 263.153,254.787 262.153,256.954 263.5,259.5C 264.62,258.167 265.953,257.667 267.5,258C 266.638,260.753 265.305,263.253 263.5,265.5C 264.167,265.833 264.833,266.167 265.5,266.5C 265,266.833 264.5,267.167 264,267.5C 262.131,266.631 261.631,265.465 262.5,264C 260.802,262.597 260.302,260.764 261,258.5C 258.194,259.111 255.194,260.111 252,261.5C 250.588,260.077 249.421,260.244 248.5,262C 249.956,262.423 250.456,263.256 250,264.5C 247.958,264.182 245.791,264.015 243.5,264C 245.286,263.804 246.619,262.971 247.5,261.5C 246.515,259.902 246.349,258.235 247,256.5C 247.72,258.255 248.887,259.089 250.5,259C 249.655,257.442 250.321,256.442 252.5,256C 251.167,255 251.167,254 252.5,253C 251.531,251.242 250.364,250.742 249,251.5C 247.266,250.751 245.433,250.251 243.5,250C 242.32,247.402 240.32,245.736 237.5,245C 237.833,244.667 238.167,244.333 238.5,244C 235.77,240.541 235.104,240.874 236.5,245C 234.203,246.16 234.536,247.16 237.5,248C 234.833,248.667 234.833,249.333 237.5,250C 236.251,251.824 235.085,251.657 234,249.5C 231.626,251.116 229.793,252.783 228.5,254.5C 228.167,253.833 227.833,253.167 227.5,252.5C 223.639,253.499 223.639,254.665 227.5,256C 224.456,256.359 224.122,257.026 226.5,258C 225.333,258.5 224.5,259.333 224,260.5C 223.667,259.5 223.333,258.5 223,257.5C 222.167,259 221,260.167 219.5,261C 221.378,261.252 223.378,261.919 225.5,263C 224.328,263.419 223.328,264.085 222.5,265C 224.23,266.852 225.396,266.686 226,264.5C 228.519,267.025 230.686,269.858 232.5,273C 229.393,277.583 228.226,277.417 229,272.5C 227.833,275 226,276.833 223.5,278C 224.167,278.333 224.833,278.667 225.5,279C 223.954,280.44 223.121,282.273 223,284.5C 222.107,283.289 221.274,283.289 220.5,284.5C 222.802,285.999 222.469,287.332 219.5,288.5C 220.326,289.451 220.492,290.451 220,291.5C 217.731,290.536 215.898,291.202 214.5,293.5C 217.164,294.498 219.497,295.998 221.5,298C 219.181,300.49 216.514,302.49 213.5,304C 213.509,305.73 213.842,307.563 214.5,309.5C 215.167,309.167 215.833,308.833 216.5,308.5C 217.806,309.912 218.64,311.579 219,313.5C 219.388,312.572 220.055,311.905 221,311.5C 222.704,311.974 224.538,312.141 226.5,312C 225.692,312.308 225.025,312.808 224.5,313.5C 226.5,314.833 228.167,316.5 229.5,318.5C 228.753,318.736 227.92,319.07 227,319.5C 226.331,316.972 225.498,316.972 224.5,319.5C 225.628,320.262 226.795,320.929 228,321.5C 229,321.167 230,320.833 231,320.5C 231.5,321 232,321.5 232.5,322C 227.492,322.869 227.825,323.536 233.5,324C 232.289,324.893 232.289,325.726 233.5,326.5C 234.382,325.24 235.382,324.074 236.5,323C 236.167,322.667 235.833,322.333 235.5,322C 237.421,321.64 239.088,320.806 240.5,319.5C 241.167,320.167 241.833,320.833 242.5,321.5C 245.084,320.212 246.584,320.878 247,323.5C 246.282,322.549 245.449,322.383 244.5,323C 244.365,324.768 244.365,326.601 244.5,328.5C 245.696,328.154 245.696,327.654 244.5,327C 246.794,326.819 248.961,325.985 251,324.5C 251.5,324.667 252,324.833 252.5,325C 251.289,325.893 251.289,326.726 252.5,327.5C 254.271,326.965 254.604,326.131 253.5,325C 254.938,324.781 256.271,324.281 257.5,323.5C 254.924,322.117 255.258,321.283 258.5,321C 256.833,320.667 255.167,320.333 253.5,320C 255.686,319.396 255.852,318.23 254,316.5C 252.667,318.5 251.333,320.5 250,322.5C 249.626,321.584 249.126,320.75 248.5,320C 250.833,318.757 251.5,317.091 250.5,315C 253.063,314.237 253.063,313.737 250.5,313.5C 248.627,313.482 248.294,313.982 249.5,315C 247.023,316.375 246.189,318.209 247,320.5C 245.795,319.929 244.628,319.262 243.5,318.5C 245.843,317.856 246.843,315.856 246.5,312.5C 243.953,310.728 241.286,309.895 238.5,310C 239.711,308.887 239.711,307.72 238.5,306.5C 239.002,305.479 239.668,305.312 240.5,306C 241.833,307 241.833,308 240.5,309C 242.367,309.711 243.867,309.211 245,307.5C 246.011,308.337 247.178,308.67 248.5,308.5C 248.67,307.178 248.337,306.011 247.5,305C 248.742,301.643 249.576,301.81 250,305.5C 252.579,303.079 253.413,303.579 252.5,307C 254.973,311.429 257.307,311.429 259.5,307C 257.311,306.323 256.978,305.156 258.5,303.5C 257.24,302.618 256.074,301.618 255,300.5C 254.667,300.833 254.333,301.167 254,301.5C 253.426,299.508 252.259,298.008 250.5,297C 251,296.5 251.5,296 252,295.5C 256.889,298.721 260.722,302.888 263.5,308C 262.257,309.154 261.257,310.488 260.5,312C 261.167,312.333 261.833,312.667 262.5,313C 261.833,314.333 261.167,315.667 260.5,317C 261.744,317.456 262.577,316.956 263,315.5C 264.618,317.489 264.451,319.489 262.5,321.5C 261.011,321.533 259.678,322.033 258.5,323C 259.5,323.833 260.5,324.667 261.5,325.5C 260.975,326.192 260.308,326.692 259.5,327C 260.552,328.119 261.719,328.619 263,328.5C 262.023,322.552 262.857,322.219 265.5,327.5C 266.5,326.833 267.5,326.167 268.5,325.5C 270.59,327.579 271.09,329.912 270,332.5C 271.609,331.85 273.109,332.35 274.5,334C 271.848,335.065 270.015,336.898 269,339.5C 268.168,334.848 265.668,333.514 261.5,335.5C 262.989,335.533 264.322,336.033 265.5,337C 263.671,337.273 262.171,338.107 261,339.5C 259.16,338.167 258.66,338.334 259.5,340C 258.354,340.645 257.354,341.478 256.5,342.5C 255.167,341.167 253.833,341.167 252.5,342.5C 251.749,341.624 251.249,340.624 251,339.5C 248.364,339.545 245.53,339.712 242.5,340C 241.91,341.509 241.244,343.009 240.5,344.5C 235.636,347.133 234.47,345.8 237,340.5C 237.089,343.849 238.256,344.349 240.5,342C 240.741,340.438 240.241,338.938 239,337.5C 238.026,339.878 237.359,339.544 237,336.5C 235.055,337.863 232.888,338.697 230.5,339C 231.956,339.423 232.456,340.256 232,341.5C 229.557,340.407 227.057,339.407 224.5,338.5C 223.692,338.808 223.025,339.308 222.5,340C 223.641,340.741 223.641,341.575 222.5,342.5C 222.938,343.506 223.604,343.506 224.5,342.5C 225.386,343.325 225.719,344.325 225.5,345.5C 223.25,345.181 221.25,345.681 219.5,347C 220.815,348.395 220.481,349.395 218.5,350C 220.32,350.979 221.487,352.479 222,354.5C 222.711,352.101 222.544,349.768 221.5,347.5C 222.167,347.167 222.833,346.833 223.5,346.5C 225.767,346.559 226.433,347.392 225.5,349C 226.72,351.702 228.554,352.536 231,351.5C 232.319,352.319 233.485,353.319 234.5,354.5C 231.893,355.034 229.393,354.367 227,352.5C 226.333,354.5 225.667,356.5 225,358.5C 223.716,357.428 223.383,356.095 224,354.5C 222.135,356.673 219.969,357.007 217.5,355.5C 216.289,356.274 216.289,357.107 217.5,358C 216.551,358.617 215.718,358.451 215,357.5C 214.102,359.626 212.935,361.626 211.5,363.5C 212.326,364.451 212.492,365.451 212,366.5C 209.684,365.861 207.184,365.861 204.5,366.5C 205.246,367.736 205.579,369.07 205.5,370.5C 206.833,369.833 208.167,369.167 209.5,368.5C 210.692,372.297 212.192,375.963 214,379.5C 214.492,378.451 214.326,377.451 213.5,376.5C 214.325,375.614 215.325,375.281 216.5,375.5C 216.5,374.5 216.5,373.5 216.5,372.5C 219.777,372.422 222.277,373.756 224,376.5C 224.333,374.5 224.667,372.5 225,370.5C 225.333,370.833 225.667,371.167 226,371.5C 226.419,370.328 227.085,369.328 228,368.5C 234.324,370.945 239.157,374.445 242.5,379C 242.167,379.333 241.833,379.667 241.5,380C 242.854,381.294 244.188,381.46 245.5,380.5C 247.264,383.177 248.43,382.844 249,379.5C 249.249,380.624 249.749,381.624 250.5,382.5C 251.83,380.653 251.497,379.153 249.5,378C 251.5,377.333 252.833,376 253.5,374C 252.083,371.174 250.583,371.007 249,373.5C 247.417,371.798 247.917,370.464 250.5,369.5C 252.073,371.836 253.406,371.836 254.5,369.5C 257.627,369.02 260.46,368.02 263,366.5C 263.998,370.473 264.331,374.473 264,378.5C 263.282,377.549 262.449,377.383 261.5,378C 262.741,380.563 264.074,383.063 265.5,385.5C 266.298,383.922 266.798,382.256 267,380.5C 266.585,391.484 266.585,402.484 267,413.5C 267.176,421.694 268.343,428.36 270.5,433.5C 275.362,457.913 284.196,480.913 297,502.5C 301.313,509.303 306.147,515.636 311.5,521.5C 311.167,522.167 310.833,522.833 310.5,523.5C 293.243,544.428 275.243,564.761 256.5,584.5C 251.739,586.809 248.739,590.643 247.5,596C 248.608,601.44 251.941,604.44 257.5,605C 273.521,605.725 289.521,605.392 305.5,604C 340.643,600.399 375.643,596.065 410.5,591C 406.799,600.963 403.632,611.13 401,621.5C 345.311,633.768 289.977,644.101 235,652.5C 234.504,650.965 234.67,649.465 235.5,648C 234.212,648.027 233.212,647.027 232.5,645C 234.126,645.195 235.793,645.195 237.5,645C 238.784,643.703 238.617,642.536 237,641.5C 236.667,642.167 236.333,642.833 236,643.5C 235.333,641.5 234,640.167 232,639.5C 231.383,640.449 231.549,641.282 232.5,642C 231.262,641.923 230.262,642.089 229.5,642.5C 229.723,643.967 230.056,645.467 230.5,647C 228.447,647.325 226.447,646.991 224.5,646C 225.833,645.667 227.167,645.333 228.5,645C 228.268,641.874 228.101,638.708 228,635.5C 226.989,636.337 225.822,636.67 224.5,636.5C 224.819,638.75 224.319,640.75 223,642.5C 222.667,641.167 222.333,639.833 222,638.5C 221.282,639.451 220.449,639.617 219.5,639C 220.759,638.077 222.092,637.243 223.5,636.5C 222.5,635.5 221.5,634.5 220.5,633.5C 218.045,636.077 215.378,638.411 212.5,640.5C 212.709,641.086 213.043,641.586 213.5,642C 209.75,646.452 209.416,650.785 212.5,655C 210.618,657.108 208.285,658.441 205.5,659C 207.301,659.317 207.634,659.984 206.5,661C 205.584,661.374 204.75,661.874 204,662.5C 202.269,658.665 200.935,658.998 200,663.5C 198.294,662.692 197.461,661.359 197.5,659.5C 194.552,659.223 191.719,659.556 189,660.5C 188.5,660 188,659.5 187.5,659C 188.833,658.333 188.833,657.667 187.5,657C 188.899,656.405 190.232,656.572 191.5,657.5C 193.421,655.986 195.421,655.153 197.5,655C 195.752,654.92 194.085,654.087 192.5,652.5C 189.42,654.987 187.92,653.987 188,649.5C 187.798,651.256 187.298,652.922 186.5,654.5C 185.167,655.5 183.833,656.5 182.5,657.5C 183.074,659.059 183.74,660.559 184.5,662C 181.27,665.239 179.103,668.739 178,672.5C 176.163,672.665 174.163,673.332 172,674.5C 170.368,670.886 168.368,667.552 166,664.5C 165.333,665.833 164.667,665.833 164,664.5C 163.544,663.256 164.044,662.423 165.5,662C 164.975,661.308 164.308,660.808 163.5,660.5C 162.443,662.849 160.943,664.849 159,666.5C 157.933,665.809 156.766,665.309 155.5,665C 157.061,664.682 158.228,663.849 159,662.5C 159.333,663.167 159.667,663.833 160,664.5C 160.667,662.5 161.333,660.5 162,658.5C 162.654,659.696 163.154,659.696 163.5,658.5C 160.495,655.58 158.662,656.246 158,660.5C 157.586,660.043 157.086,659.709 156.5,659.5C 155.636,661.197 154.303,662.363 152.5,663C 153.351,665.454 152.351,666.454 149.5,666C 148.872,662.585 150.206,659.919 153.5,658C 153.043,657.586 152.709,657.086 152.5,656.5C 155.794,654.002 156.294,651.002 154,647.5C 150.793,650.15 150.293,649.984 152.5,647C 150.396,646.511 150.062,645.345 151.5,643.5C 149.566,641.304 148.9,638.97 149.5,636.5C 149.667,636.167 149.833,635.833 150,635.5C 150.915,636.328 151.581,637.328 152,638.5C 154.61,637.06 156.777,635.06 158.5,632.5C 159.167,632.833 159.833,633.167 160.5,633.5C 163.478,631.652 163.812,629.652 161.5,627.5C 161.833,626.833 162.167,626.167 162.5,625.5C 161.099,623.723 159.599,622.056 158,620.5C 157.667,622.167 157.333,623.833 157,625.5C 155.192,623.604 153.025,623.104 150.5,624C 152.931,625.729 152.597,627.229 149.5,628.5C 148.205,627.902 146.872,627.402 145.5,627C 146.376,625.414 147.376,623.914 148.5,622.5C 146.929,621.796 145.262,620.463 143.5,618.5C 143.149,621.084 142.983,623.751 143,626.5C 141.68,626.799 140.18,626.966 138.5,627C 142.272,628.389 142.272,629.389 138.5,630C 137.91,631.509 137.244,633.009 136.5,634.5C 136.167,634.333 135.833,634.167 135.5,634C 135.616,632.732 135.949,631.398 136.5,630C 135.833,629.667 135.167,629.333 134.5,629C 137.268,628.292 138.101,626.792 137,624.5C 137.414,624.957 137.914,625.291 138.5,625.5C 139.631,623.926 139.798,622.259 139,620.5C 138.667,620.833 138.333,621.167 138,621.5C 136.46,617.426 135.127,617.093 134,620.5C 133.727,618.899 133.227,617.399 132.5,616C 133.28,614.927 133.113,613.76 132,612.5C 131.333,615.167 130.667,615.167 130,612.5C 129.333,613.833 128.667,613.833 128,612.5C 126.354,610.945 126.021,609.279 127,607.5C 125.984,608.634 125.317,608.301 125,606.5C 124.333,607.833 123.667,607.833 123,606.5C 121.324,607.061 119.991,608.061 119,609.5C 117.017,607.003 117.85,605.836 121.5,606C 120.044,605.577 119.544,604.744 120,603.5C 121.073,604.28 122.24,604.113 123.5,603C 122.747,601.513 121.914,601.346 121,602.5C 121.991,599.756 121.657,597.089 120,594.5C 119,596.167 117.667,597.5 116,598.5C 115.517,597.552 115.351,596.552 115.5,595.5C 114.448,595.351 113.448,595.517 112.5,596C 113.731,597.183 113.731,598.349 112.5,599.5C 112.167,598.833 111.833,598.167 111.5,597.5C 110.914,597.709 110.414,598.043 110,598.5C 109.64,600.608 108.973,602.608 108,604.5C 107.667,603.833 107.333,603.167 107,602.5C 105.504,605.854 103.338,606.687 100.5,605C 103.051,603.484 102.718,602.651 99.5,602.5C 99.6495,601.448 99.4828,600.448 99,599.5C 98.3457,600.696 97.8457,600.696 97.5,599.5C 98.843,597.216 98.1764,596.383 95.5,597C 95.1667,597.333 94.8333,597.667 94.5,598C 97.1667,599 97.1667,600 94.5,601C 98.4527,603.644 98.286,606.144 94,608.5C 93.2825,607.549 92.4491,607.383 91.5,608C 92.7596,609.814 92.7596,611.647 91.5,613.5C 90.5745,612.359 89.7412,612.359 89,613.5C 88.0853,612.672 87.4186,611.672 87,610.5C 83.9945,611.577 81.1612,613.577 78.5,616.5C 80.2614,618.564 80.5947,620.731 79.5,623C 80.376,624.586 81.376,626.086 82.5,627.5C 83.7202,626.289 84.8869,626.289 86,627.5C 85.621,629.075 85.7877,630.575 86.5,632C 85.5,634 84.5,634 83.5,632C 84.731,630.817 84.731,629.651 83.5,628.5C 82.8076,629.025 82.3076,629.692 82,630.5C 80.9274,628.453 79.7607,626.453 78.5,624.5C 78.1654,625.664 78.1654,626.997 78.5,628.5C 77.2299,629.562 76.0633,630.562 75,631.5C 74.6667,630.5 74.3333,629.5 74,628.5C 73.2613,629.574 72.2613,630.241 71,630.5C 69.85,629.576 68.85,629.576 68,630.5C 67.1475,628.875 66.1475,628.542 65,629.5C 64.148,632.411 63.148,635.077 62,637.5C 63.4194,636.54 64.9194,635.707 66.5,635C 63.9722,634.331 63.9722,633.498 66.5,632.5C 67.4519,634.045 67.7852,635.712 67.5,637.5C 68.5,637.5 69.5,637.5 70.5,637.5C 70.5432,641.893 70.0432,642.226 69,638.5C 68.6667,639.167 68.3333,639.833 68,640.5C 67.1072,639.289 66.2739,639.289 65.5,640.5C 67.2424,642.479 69.2424,643.979 71.5,645C 70.2845,647.096 69.4512,646.929 69,644.5C 68.2078,646.587 67.0412,648.421 65.5,650C 67.8776,650.974 67.5443,651.641 64.5,652C 65.1667,652.333 65.8333,652.667 66.5,653C 65.2068,653.49 63.8734,653.657 62.5,653.5C 62.4914,655.308 62.9914,656.975 64,658.5C 65.5874,657.273 66.9207,657.606 68,659.5C 68.6667,658.167 69.3333,656.833 70,655.5C 71.3246,657.993 73.4913,659.16 76.5,659C 78.9345,661.798 81.7678,662.964 85,662.5C 87.4846,664.804 87.9846,664.137 86.5,660.5C 84.9984,659.917 83.6651,659.084 82.5,658C 83,657.5 83.5,657 84,656.5C 85.7972,657.999 87.6305,659.499 89.5,661C 89.3672,663.733 89.3672,666.4 89.5,669C 89.9054,669.945 90.572,670.612 91.5,671C 87.2801,674.997 87.6134,676.663 92.5,676C 93.7256,674.365 95.059,672.865 96.5,671.5C 97.293,672.355 96.9597,673.189 95.5,674C 96,674.5 96.5,675 97,675.5C 97.6995,673.968 98.8662,672.968 100.5,672.5C 101.731,673.651 101.731,674.817 100.5,676C 102.97,679.47 103.97,678.97 103.5,674.5C 106.598,674.413 106.932,674.913 104.5,676C 105.167,677.667 105.833,679.333 106.5,681C 105.416,683.825 104.249,683.992 103,681.5C 102.667,682.167 102.333,682.833 102,683.5C 100.163,683.335 98.1634,682.668 96,681.5C 95.5065,683.134 95.3398,684.801 95.5,686.5C 98.2048,686.38 98.8715,687.38 97.5,689.5C 101.136,690.936 101.303,692.603 98,694.5C 96.6012,693.773 95.1012,693.273 93.5,693C 93.8333,692 94.1667,691 94.5,690C 93.0337,689.365 91.7003,688.531 90.5,687.5C 89.914,687.709 89.414,688.043 89,688.5C 88.5604,686.924 87.727,685.59 86.5,684.5C 87.3256,683.549 87.4922,682.549 87,681.5C 85.3333,681.5 83.6667,681.5 82,681.5C 79.2656,680.638 79.0989,679.805 81.5,679C 79.8629,677.049 78.3629,677.216 77,679.5C 75.8007,675.814 75.4674,676.147 76,680.5C 76.8333,681.333 77.6667,682.167 78.5,683C 75.9194,686.025 74.5861,685.692 74.5,682C 73.0325,680.902 72.1992,679.402 72,677.5C 71,678.833 70,678.833 69,677.5C 66.1738,678.917 66.0072,680.417 68.5,682C 67.8333,682.333 67.1667,682.667 66.5,683C 68.2556,683.202 69.9223,683.702 71.5,684.5C 71.0623,685.506 70.3957,685.506 69.5,684.5C 69.1667,685.167 68.8333,685.833 68.5,686.5C 67.0325,685.305 65.5325,685.305 64,686.5C 63.0546,686.095 62.3879,685.428 62,684.5C 59.4575,685.876 59.2908,687.043 61.5,688C 58.9744,688.176 57.1411,687.01 56,684.5C 54.513,685.253 54.3463,686.086 55.5,687C 54.552,687.483 53.552,687.649 52.5,687.5C 52.4386,689.592 51.4386,691.092 49.5,692C 50.5523,693.716 49.8856,694.716 47.5,695C 48.7111,696.113 48.7111,697.28 47.5,698.5C 45.614,699.93 43.9473,701.597 42.5,703.5C 43.2739,704.711 44.1072,704.711 45,703.5C 45.4512,705.929 46.2845,706.096 47.5,704C 46.3659,702.984 46.6992,702.317 48.5,702C 46.2053,701.016 46.5386,700.183 49.5,699.5C 50.9705,700.381 51.8038,701.714 52,703.5C 55.0969,702.711 55.2636,701.544 52.5,700C 53.9663,699.365 55.2997,698.531 56.5,697.5C 56.9106,698.262 57.0773,699.262 57,700.5C 58.5069,699.465 60.0069,699.632 61.5,701C 57.0446,702.518 56.7113,704.351 60.5,706.5C 61.2508,705.624 61.7508,704.624 62,703.5C 63,704.833 64,704.833 65,703.5C 67.4342,705.506 67.6008,707.34 65.5,709C 65.8333,710 66.1667,711 66.5,712C 66,712.167 65.5,712.333 65,712.5C 63.6693,711.004 62.1693,709.671 60.5,708.5C 59.5539,708.987 58.5539,709.32 57.5,709.5C 56.1637,708.577 54.8304,708.077 53.5,708C 52.1854,709.395 52.5188,710.395 54.5,711C 53.8333,711.333 53.1667,711.667 52.5,712C 53.8333,712.667 53.8333,713.333 52.5,714C 53.0253,714.692 53.6919,715.192 54.5,715.5C 56.479,714.794 58.1457,714.794 59.5,715.5C 56.5667,718.029 53.5667,718.029 50.5,715.5C 50.6457,713.685 50.8124,711.685 51,709.5C 49.6914,711.891 48.6914,711.891 48,709.5C 46.3333,712.167 44.6667,712.167 43,709.5C 42.3076,710.025 41.8076,710.692 41.5,711.5C 42.8178,712.038 44.4845,712.871 46.5,714C 45.8333,715 45.1667,716 44.5,717C 43.2624,716.923 42.2624,717.089 41.5,717.5C 44.0861,718.709 46.5861,720.043 49,721.5C 49.5,721.333 50,721.167 50.5,721C 49.5494,720.282 49.3828,719.449 50,718.5C 51.0458,720.09 52.2125,721.59 53.5,723C 51.7536,723.471 50.087,724.138 48.5,725C 52.2138,728.91 55.0471,728.744 57,724.5C 57.0343,726.18 57.201,727.68 57.5,729C 53.7493,729.761 53.5826,730.928 57,732.5C 58.3333,731.167 59.6667,729.833 61,728.5C 60.8404,731.047 59.6737,733.214 57.5,735C 58.91,735.368 59.91,736.201 60.5,737.5C 57.8891,743.057 59.0558,747.723 64,751.5C 66.125,750.149 67.2917,750.815 67.5,753.5C 67.3333,754.167 67.1667,754.833 67,755.5C 64.6198,753.008 61.9531,751.675 59,751.5C 56.2222,753.038 54.3889,755.371 53.5,758.5C 52.2888,757.726 52.2888,756.893 53.5,756C 52.1667,755.667 50.8333,755.333 49.5,755C 54.5829,754.195 55.5829,751.362 52.5,746.5C 47.2805,747.413 47.2805,748.58 52.5,750C 50.7928,750.195 49.1261,750.195 47.5,750C 48.4588,753.199 48.6255,756.699 48,760.5C 49,759.833 50,759.167 51,758.5C 51.4561,759.744 50.9561,760.577 49.5,761C 50.448,761.483 51.448,761.649 52.5,761.5C 52.722,764.39 52.0553,767.057 50.5,769.5C 51.09,770.799 52.09,771.632 53.5,772C 52.7772,774.811 50.9438,777.311 48,779.5C 47.5,779 47,778.5 46.5,778C 47.7433,776.846 48.7433,775.512 49.5,774C 48.9655,771.584 48.6322,769.084 48.5,766.5C 46.3446,764.011 43.678,762.344 40.5,761.5C 39.8076,762.025 39.3076,762.692 39,763.5C 37.887,762.24 37.7203,761.073 38.5,760C 34.8742,758.289 34.2075,758.956 36.5,762C 34.2967,765.569 31.9634,769.069 29.5,772.5C 32.1804,773.17 34.1804,775.17 35.5,778.5C 34.1667,779.167 32.8333,779.833 31.5,780.5C 32.8114,781.258 33.3114,782.258 33,783.5C 32.6667,783.167 32.3333,782.833 32,782.5C 30.7955,783.859 29.2955,784.859 27.5,785.5C 28.0253,786.192 28.6919,786.692 29.5,787C 28.9394,788.566 29.6061,789.899 31.5,791C 29.1771,790.694 26.8437,790.028 24.5,789C 25.428,788.612 26.0946,787.945 26.5,787C 25.1635,784.965 23.8302,782.965 22.5,781C 24.0018,778.753 26.0018,777.086 28.5,776C 28.9055,774.197 28.4055,772.364 27,770.5C 25.6667,771.167 24.6667,772.167 24,773.5C 23.5,773 23,772.5 22.5,772C 27.778,768.866 27.1113,767.2 20.5,767C 20.8333,766.667 21.1667,766.333 21.5,766C 19.765,765.349 18.0983,765.515 16.5,766.5C 15.1072,765.137 13.4405,764.304 11.5,764C 13.8776,763.026 13.5443,762.359 10.5,762C 12,759.833 13.5,757.667 15,755.5C 18.4342,754.196 18.2676,752.196 14.5,749.5C 13.2954,751.138 11.9621,751.471 10.5,750.5C 10.0145,752.777 10.6812,754.944 12.5,757C 11.552,757.483 10.552,757.649 9.5,757.5C 9.48118,764.531 8.98118,764.864 8,758.5C 7.5,759 7,759.5 6.5,760C 6.96624,761.299 6.96624,762.799 6.5,764.5C 3.8915,764.4 1.55817,765.067 -0.5,766.5C -0.5,510.833 -0.5,255.167 -0.5,-0.5 Z"/></g>
<g><path style="opacity:1" fill="#05263d" d="M 446.5,583.5 C 441.342,593.964 437.342,604.964 434.5,616.5C 435,616.833 435.5,617.167 436,617.5C 551.974,595.039 667.974,572.705 784,550.5C 786.271,550.174 787.771,551.008 788.5,553C 780.54,578.425 768.54,601.591 752.5,622.5C 731.164,649.48 705.831,671.814 676.5,689.5C 664.22,683.025 651.887,676.525 639.5,670C 586.48,648.446 532.48,645.779 477.5,662C 446.36,672.824 415.693,684.824 385.5,698C 367.119,705.072 348.452,711.238 329.5,716.5C 296.07,708.204 267.57,691.537 244,666.5C 241.457,663.251 239.291,659.751 237.5,656C 292.434,644.847 347.434,634.013 402.5,623.5C 405.208,612.005 408.541,600.672 412.5,589.5C 411.167,589.167 409.833,588.833 408.5,588.5C 362.828,596.686 316.828,602.019 270.5,604.5C 263.522,605.229 257.022,603.895 251,600.5C 249.627,598.305 249.294,595.971 250,593.5C 251.686,590.117 253.853,587.117 256.5,584.5C 275.243,564.761 293.243,544.428 310.5,523.5C 312.017,523.489 313.184,522.823 314,521.5C 319.953,513.212 326.286,505.212 333,497.5C 337.747,490.934 342.247,484.268 346.5,477.5C 352.452,468.218 358.785,459.218 365.5,450.5C 380.926,429.84 395.26,408.34 408.5,386C 408.272,385.601 407.938,385.435 407.5,385.5C 412.11,376.9 417.11,368.566 422.5,360.5C 430.232,348.717 437.232,336.383 443.5,323.5C 443.376,322.893 443.043,322.56 442.5,322.5C 445.929,315.968 449.596,309.634 453.5,303.5C 466.836,281.164 478.17,258.164 487.5,234.5C 487.5,233.833 487.5,233.167 487.5,232.5C 499.499,207.16 510.999,181.493 522,155.5C 522.833,154.667 523.667,153.833 524.5,153C 529.611,151.889 534.278,152.889 538.5,156C 593.963,213.705 635.129,280.539 662,356.5C 682.257,415.254 689.091,475.42 682.5,537C 604.677,551.887 526.843,566.721 449,581.5C 447.624,581.684 446.791,582.351 446.5,583.5 Z"/></g>
<g><path style="opacity:1" fill="#050a16" d="M 540.5,204.5 C 538.464,228.348 535.13,252.015 530.5,275.5C 529.853,274.726 529.52,273.726 529.5,272.5C 533.407,249.726 537.074,227.06 540.5,204.5 Z"/></g>
<g><path style="opacity:1" fill="#fdf5ea" d="M 540.5,204.5 C 546.124,209.968 551.29,215.968 556,222.5C 579.881,255.58 600.714,290.58 618.5,327.5C 628.617,351.183 636.95,375.516 643.5,400.5C 647.783,416.249 650.783,432.249 652.5,448.5C 653.093,463.834 653.759,479.167 654.5,494.5C 654.422,499.868 654.089,505.201 653.5,510.5C 589.318,522.499 525.151,534.832 461,547.5C 459.624,547.684 458.791,548.351 458.5,549.5C 457.176,550.85 456.176,550.683 455.5,549C 456.811,545.569 457.811,542.069 458.5,538.5C 480.824,472.016 500.657,404.683 518,336.5C 522.491,316.212 526.658,295.878 530.5,275.5C 535.13,252.015 538.464,228.348 540.5,204.5 Z"/></g>
<g><path style="opacity:1" fill="#feb935" d="M 487.5,232.5 C 487.5,233.167 487.5,233.833 487.5,234.5C 487.167,234.5 486.833,234.5 486.5,234.5C 465.98,276.181 444.147,317.848 421,359.5C 406.405,383.131 391.905,406.798 377.5,430.5C 373.5,437.167 369.5,443.833 365.5,450.5C 358.785,459.218 352.452,468.218 346.5,477.5C 334.833,492.167 323.167,506.833 311.5,521.5C 306.147,515.636 301.313,509.303 297,502.5C 284.196,480.913 275.362,457.913 270.5,433.5C 262.427,379.117 275.26,330.45 309,287.5C 357.256,233.475 416.756,215.142 487.5,232.5 Z"/></g>
<g><path style="opacity:1" fill="#141242" d="M 486.5,234.5 C 486.833,234.5 487.167,234.5 487.5,234.5C 478.17,258.164 466.836,281.164 453.5,303.5C 464.773,280.622 475.773,257.622 486.5,234.5 Z"/></g>
<g><path style="opacity:1" fill="#efda35" d="M 486.5,234.5 C 475.773,257.622 464.773,280.622 453.5,303.5C 449.596,309.634 445.929,315.968 442.5,322.5C 435.821,335.194 429.154,347.86 422.5,360.5C 417.11,368.566 412.11,376.9 407.5,385.5C 398.244,401.016 388.244,416.016 377.5,430.5C 391.905,406.798 406.405,383.131 421,359.5C 444.147,317.848 465.98,276.181 486.5,234.5 Z"/></g>
<g><path style="opacity:1" fill="#004365" d="M 493.5,304.5 C 494.097,304.735 494.43,305.235 494.5,306C 473.214,390.306 449.047,473.806 422,556.5C 381.652,564.714 341.152,571.881 300.5,578C 375.785,494.608 440.119,403.442 493.5,304.5 Z"/></g>
<g><path style="opacity:1" fill="#101142" d="M 442.5,322.5 C 443.043,322.56 443.376,322.893 443.5,323.5C 437.232,336.383 430.232,348.717 422.5,360.5C 429.154,347.86 435.821,335.194 442.5,322.5 Z"/></g>
<g><path style="opacity:1" fill="#0a0e17" d="M 618.5,327.5 C 629.239,349.537 637.739,372.537 644,396.5C 644.765,398.066 644.598,399.399 643.5,400.5C 636.95,375.516 628.617,351.183 618.5,327.5 Z"/></g>
<g><path style="opacity:1" fill="#121143" d="M 407.5,385.5 C 407.938,385.435 408.272,385.601 408.5,386C 395.26,408.34 380.926,429.84 365.5,450.5C 369.5,443.833 373.5,437.167 377.5,430.5C 388.244,416.016 398.244,401.016 407.5,385.5 Z"/></g>
<g><path style="opacity:1" fill="#f0f1f1" d="M 652.5,448.5 C 655.471,469.274 656.138,490.274 654.5,511.5C 609.048,520.516 563.715,529.516 518.5,538.5C 498.456,541.909 478.456,545.575 458.5,549.5C 458.791,548.351 459.624,547.684 461,547.5C 525.151,534.832 589.318,522.499 653.5,510.5C 654.089,505.201 654.422,499.868 654.5,494.5C 653.759,479.167 653.093,463.834 652.5,448.5 Z"/></g>
<g><path style="opacity:1" fill="#111142" d="M 346.5,477.5 C 342.247,484.268 337.747,490.934 333,497.5C 326.286,505.212 319.953,513.212 314,521.5C 313.184,522.823 312.017,523.489 310.5,523.5C 310.833,522.833 311.167,522.167 311.5,521.5C 323.167,506.833 334.833,492.167 346.5,477.5 Z"/></g>
<g><path style="opacity:1" fill="#11151e" d="M 458.5,538.5 C 457.811,542.069 456.811,545.569 455.5,549C 456.176,550.683 457.176,550.85 458.5,549.5C 478.456,545.575 498.456,541.909 518.5,538.5C 510.912,540.906 501.912,543.073 491.5,545C 478.873,547.493 466.206,549.66 453.5,551.5C 454.893,546.821 456.393,542.154 458,537.5C 458.399,537.728 458.565,538.062 458.5,538.5 Z"/></g>
<g><path style="opacity:1" fill="#fdf3e8" d="M 1023.5,535.5 C 1023.5,698.167 1023.5,860.833 1023.5,1023.5C 682.167,1023.5 340.833,1023.5 -0.5,1023.5C -0.5,937.833 -0.5,852.167 -0.5,766.5C 1.55817,765.067 3.8915,764.4 6.5,764.5C 6.96624,762.799 6.96624,761.299 6.5,760C 7,759.5 7.5,759 8,758.5C 8.98118,764.864 9.48118,764.531 9.5,757.5C 10.552,757.649 11.552,757.483 12.5,757C 10.6812,754.944 10.0145,752.777 10.5,750.5C 11.9621,751.471 13.2954,751.138 14.5,749.5C 18.2676,752.196 18.4342,754.196 15,755.5C 13.5,757.667 12,759.833 10.5,762C 13.5443,762.359 13.8776,763.026 11.5,764C 13.4405,764.304 15.1072,765.137 16.5,766.5C 18.0983,765.515 19.765,765.349 21.5,766C 21.1667,766.333 20.8333,766.667 20.5,767C 27.1113,767.2 27.778,768.866 22.5,772C 23,772.5 23.5,773 24,773.5C 24.6667,772.167 25.6667,771.167 27,770.5C 28.4055,772.364 28.9055,774.197 28.5,776C 26.0018,777.086 24.0018,778.753 22.5,781C 23.8302,782.965 25.1635,784.965 26.5,787C 26.0946,787.945 25.428,788.612 24.5,789C 26.8437,790.028 29.1771,790.694 31.5,791C 29.6061,789.899 28.9394,788.566 29.5,787C 28.6919,786.692 28.0253,786.192 27.5,785.5C 29.2955,784.859 30.7955,783.859 32,782.5C 32.3333,782.833 32.6667,783.167 33,783.5C 33.3114,782.258 32.8114,781.258 31.5,780.5C 32.8333,779.833 34.1667,779.167 35.5,778.5C 34.1804,775.17 32.1804,773.17 29.5,772.5C 31.9634,769.069 34.2967,765.569 36.5,762C 34.2075,758.956 34.8742,758.289 38.5,760C 37.7203,761.073 37.887,762.24 39,763.5C 39.3076,762.692 39.8076,762.025 40.5,761.5C 43.678,762.344 46.3446,764.011 48.5,766.5C 48.6322,769.084 48.9655,771.584 49.5,774C 48.7433,775.512 47.7433,776.846 46.5,778C 47,778.5 47.5,779 48,779.5C 50.9438,777.311 52.7772,774.811 53.5,772C 52.09,771.632 51.09,770.799 50.5,769.5C 52.0553,767.057 52.722,764.39 52.5,761.5C 51.448,761.649 50.448,761.483 49.5,761C 50.9561,760.577 51.4561,759.744 51,758.5C 50,759.167 49,759.833 48,760.5C 48.6255,756.699 48.4588,753.199 47.5,750C 49.1261,750.195 50.7928,750.195 52.5,750C 47.2805,748.58 47.2805,747.413 52.5,746.5C 55.5829,751.362 54.5829,754.195 49.5,755C 50.8333,755.333 52.1667,755.667 53.5,756C 52.2888,756.893 52.2888,757.726 53.5,758.5C 54.3889,755.371 56.2222,753.038 59,751.5C 61.9531,751.675 64.6198,753.008 67,755.5C 67.1667,754.833 67.3333,754.167 67.5,753.5C 67.2917,750.815 66.125,750.149 64,751.5C 59.0558,747.723 57.8891,743.057 60.5,737.5C 59.91,736.201 58.91,735.368 57.5,735C 59.6737,733.214 60.8404,731.047 61,728.5C 59.6667,729.833 58.3333,731.167 57,732.5C 53.5826,730.928 53.7493,729.761 57.5,729C 57.201,727.68 57.0343,726.18 57,724.5C 55.0471,728.744 52.2138,728.91 48.5,725C 50.087,724.138 51.7536,723.471 53.5,723C 52.2125,721.59 51.0458,720.09 50,718.5C 49.3828,719.449 49.5494,720.282 50.5,721C 50,721.167 49.5,721.333 49,721.5C 46.5861,720.043 44.0861,718.709 41.5,717.5C 42.2624,717.089 43.2624,716.923 44.5,717C 45.1667,716 45.8333,715 46.5,714C 44.4845,712.871 42.8178,712.038 41.5,711.5C 41.8076,710.692 42.3076,710.025 43,709.5C 44.6667,712.167 46.3333,712.167 48,709.5C 48.6914,711.891 49.6914,711.891 51,709.5C 50.8124,711.685 50.6457,713.685 50.5,715.5C 53.5667,718.029 56.5667,718.029 59.5,715.5C 58.1457,714.794 56.479,714.794 54.5,715.5C 53.6919,715.192 53.0253,714.692 52.5,714C 53.8333,713.333 53.8333,712.667 52.5,712C 53.1667,711.667 53.8333,711.333 54.5,711C 52.5188,710.395 52.1854,709.395 53.5,708C 54.8304,708.077 56.1637,708.577 57.5,709.5C 58.5539,709.32 59.5539,708.987 60.5,708.5C 62.1693,709.671 63.6693,711.004 65,712.5C 65.5,712.333 66,712.167 66.5,712C 66.1667,711 65.8333,710 65.5,709C 67.6008,707.34 67.4342,705.506 65,703.5C 64,704.833 63,704.833 62,703.5C 61.7508,704.624 61.2508,705.624 60.5,706.5C 56.7113,704.351 57.0446,702.518 61.5,701C 60.0069,699.632 58.5069,699.465 57,700.5C 57.0773,699.262 56.9106,698.262 56.5,697.5C 55.2997,698.531 53.9663,699.365 52.5,700C 55.2636,701.544 55.0969,702.711 52,703.5C 51.8038,701.714 50.9705,700.381 49.5,699.5C 46.5386,700.183 46.2053,701.016 48.5,702C 46.6992,702.317 46.3659,702.984 47.5,704C 46.2845,706.096 45.4512,705.929 45,703.5C 44.1072,704.711 43.2739,704.711 42.5,703.5C 43.9473,701.597 45.614,699.93 47.5,698.5C 48.7111,697.28 48.7111,696.113 47.5,695C 49.8856,694.716 50.5523,693.716 49.5,692C 51.4386,691.092 52.4386,689.592 52.5,687.5C 53.552,687.649 54.552,687.483 55.5,687C 54.3463,686.086 54.513,685.253 56,684.5C 57.1411,687.01 58.9744,688.176 61.5,688C 59.2908,687.043 59.4575,685.876 62,684.5C 62.3879,685.428 63.0546,686.095 64,686.5C 65.5325,685.305 67.0325,685.305 68.5,686.5C 68.8333,685.833 69.1667,685.167 69.5,684.5C 70.3957,685.506 71.0623,685.506 71.5,684.5C 69.9223,683.702 68.2556,683.202 66.5,683C 67.1667,682.667 67.8333,682.333 68.5,682C 66.0072,680.417 66.1738,678.917 69,677.5C 70,678.833 71,678.833 72,677.5C 72.1992,679.402 73.0325,680.902 74.5,682C 74.5861,685.692 75.9194,686.025 78.5,683C 77.6667,682.167 76.8333,681.333 76,680.5C 75.4674,676.147 75.8007,675.814 77,679.5C 78.3629,677.216 79.8629,677.049 81.5,679C 79.0989,679.805 79.2656,680.638 82,681.5C 83.6667,681.5 85.3333,681.5 87,681.5C 87.4922,682.549 87.3256,683.549 86.5,684.5C 87.727,685.59 88.5604,686.924 89,688.5C 89.414,688.043 89.914,687.709 90.5,687.5C 91.7003,688.531 93.0337,689.365 94.5,690C 94.1667,691 93.8333,692 93.5,693C 95.1012,693.273 96.6012,693.773 98,694.5C 101.303,692.603 101.136,690.936 97.5,689.5C 98.8715,687.38 98.2048,686.38 95.5,686.5C 95.3398,684.801 95.5065,683.134 96,681.5C 98.1634,682.668 100.163,683.335 102,683.5C 102.333,682.833 102.667,682.167 103,681.5C 104.249,683.992 105.416,683.825 106.5,681C 105.833,679.333 105.167,677.667 104.5,676C 106.932,674.913 106.598,674.413 103.5,674.5C 103.97,678.97 102.97,679.47 100.5,676C 101.731,674.817 101.731,673.651 100.5,672.5C 98.8662,672.968 97.6995,673.968 97,675.5C 96.5,675 96,674.5 95.5,674C 96.9597,673.189 97.293,672.355 96.5,671.5C 95.059,672.865 93.7256,674.365 92.5,676C 87.6134,676.663 87.2801,674.997 91.5,671C 90.572,670.612 89.9054,669.945 89.5,669C 89.3672,666.4 89.3672,663.733 89.5,661C 87.6305,659.499 85.7972,657.999 84,656.5C 83.5,657 83,657.5 82.5,658C 83.6651,659.084 84.9984,659.917 86.5,660.5C 87.9846,664.137 87.4846,664.804 85,662.5C 81.7678,662.964 78.9345,661.798 76.5,659C 73.4913,659.16 71.3246,657.993 70,655.5C 69.3333,656.833 68.6667,658.167 68,659.5C 66.9207,657.606 65.5874,657.273 64,658.5C 62.9914,656.975 62.4914,655.308 62.5,653.5C 63.8734,653.657 65.2068,653.49 66.5,653C 65.8333,652.667 65.1667,652.333 64.5,652C 67.5443,651.641 67.8776,650.974 65.5,650C 67.0412,648.421 68.2078,646.587 69,644.5C 69.4512,646.929 70.2845,647.096 71.5,645C 69.2424,643.979 67.2424,642.479 65.5,640.5C 66.2739,639.289 67.1072,639.289 68,640.5C 68.3333,639.833 68.6667,639.167 69,638.5C 70.0432,642.226 70.5432,641.893 70.5,637.5C 69.5,637.5 68.5,637.5 67.5,637.5C 67.7852,635.712 67.4519,634.045 66.5,632.5C 63.9722,633.498 63.9722,634.331 66.5,635C 64.9194,635.707 63.4194,636.54 62,637.5C 63.148,635.077 64.148,632.411 65,629.5C 66.1475,628.542 67.1475,628.875 68,630.5C 68.85,629.576 69.85,629.576 71,630.5C 72.2613,630.241 73.2613,629.574 74,628.5C 74.3333,629.5 74.6667,630.5 75,631.5C 76.0633,630.562 77.2299,629.562 78.5,628.5C 78.1654,626.997 78.1654,625.664 78.5,624.5C 79.7607,626.453 80.9274,628.453 82,630.5C 82.3076,629.692 82.8076,629.025 83.5,628.5C 84.731,629.651 84.731,630.817 83.5,632C 84.5,634 85.5,634 86.5,632C 85.7877,630.575 85.621,629.075 86,627.5C 84.8869,626.289 83.7202,626.289 82.5,627.5C 81.376,626.086 80.376,624.586 79.5,623C 80.5947,620.731 80.2614,618.564 78.5,616.5C 81.1612,613.577 83.9945,611.577 87,610.5C 87.4186,611.672 88.0853,612.672 89,613.5C 89.7412,612.359 90.5745,612.359 91.5,613.5C 92.7596,611.647 92.7596,609.814 91.5,608C 92.4491,607.383 93.2825,607.549 94,608.5C 98.286,606.144 98.4527,603.644 94.5,601C 97.1667,600 97.1667,599 94.5,598C 94.8333,597.667 95.1667,597.333 95.5,597C 98.1764,596.383 98.843,597.216 97.5,599.5C 97.8457,600.696 98.3457,600.696 99,599.5C 99.4828,600.448 99.6495,601.448 99.5,602.5C 102.718,602.651 103.051,603.484 100.5,605C 103.338,606.687 105.504,605.854 107,602.5C 107.333,603.167 107.667,603.833 108,604.5C 108.973,602.608 109.64,600.608 110,598.5C 110.414,598.043 110.914,597.709 111.5,597.5C 111.833,598.167 112.167,598.833 112.5,599.5C 113.731,598.349 113.731,597.183 112.5,596C 113.448,595.517 114.448,595.351 115.5,595.5C 115.351,596.552 115.517,597.552 116,598.5C 117.667,597.5 119,596.167 120,594.5C 121.657,597.089 121.991,599.756 121,602.5C 121.914,601.346 122.747,601.513 123.5,603C 122.24,604.113 121.073,604.28 120,603.5C 119.544,604.744 120.044,605.577 121.5,606C 117.85,605.836 117.017,607.003 119,609.5C 119.991,608.061 121.324,607.061 123,606.5C 123.667,607.833 124.333,607.833 125,606.5C 125.317,608.301 125.984,608.634 127,607.5C 126.021,609.279 126.354,610.945 128,612.5C 128.667,613.833 129.333,613.833 130,612.5C 130.667,615.167 131.333,615.167 132,612.5C 133.113,613.76 133.28,614.927 132.5,616C 133.227,617.399 133.727,618.899 134,620.5C 135.127,617.093 136.46,617.426 138,621.5C 138.333,621.167 138.667,620.833 139,620.5C 139.798,622.259 139.631,623.926 138.5,625.5C 137.914,625.291 137.414,624.957 137,624.5C 138.101,626.792 137.268,628.292 134.5,629C 135.167,629.333 135.833,629.667 136.5,630C 135.949,631.398 135.616,632.732 135.5,634C 135.833,634.167 136.167,634.333 136.5,634.5C 137.244,633.009 137.91,631.509 138.5,630C 142.272,629.389 142.272,628.389 138.5,627C 140.18,626.966 141.68,626.799 143,626.5C 142.983,623.751 143.149,621.084 143.5,618.5C 145.262,620.463 146.929,621.796 148.5,622.5C 147.376,623.914 146.376,625.414 145.5,627C 146.872,627.402 148.205,627.902 149.5,628.5C 152.597,627.229 152.931,625.729 150.5,624C 153.025,623.104 155.192,623.604 157,625.5C 157.333,623.833 157.667,622.167 158,620.5C 159.599,622.056 161.099,623.723 162.5,625.5C 162.167,626.167 161.833,626.833 161.5,627.5C 163.812,629.652 163.478,631.652 160.5,633.5C 159.833,633.167 159.167,632.833 158.5,632.5C 156.777,635.06 154.61,637.06 152,638.5C 151.581,637.328 150.915,636.328 150,635.5C 149.833,635.833 149.667,636.167 149.5,636.5C 148.9,638.97 149.566,641.304 151.5,643.5C 150.062,645.345 150.396,646.511 152.5,647C 150.293,649.984 150.793,650.15 154,647.5C 156.294,651.002 155.794,654.002 152.5,656.5C 152.709,657.086 153.043,657.586 153.5,658C 150.206,659.919 148.872,662.585 149.5,666C 152.351,666.454 153.351,665.454 152.5,663C 154.303,662.363 155.636,661.197 156.5,659.5C 157.086,659.709 157.586,660.043 158,660.5C 158.662,656.246 160.495,655.58 163.5,658.5C 163.154,659.696 162.654,659.696 162,658.5C 161.333,660.5 160.667,662.5 160,664.5C 159.667,663.833 159.333,663.167 159,662.5C 158.228,663.849 157.061,664.682 155.5,665C 156.766,665.309 157.933,665.809 159,666.5C 160.943,664.849 162.443,662.849 163.5,660.5C 164.308,660.808 164.975,661.308 165.5,662C 164.044,662.423 163.544,663.256 164,664.5C 164.667,665.833 165.333,665.833 166,664.5C 168.368,667.552 170.368,670.886 172,674.5C 174.163,673.332 176.163,672.665 178,672.5C 179.103,668.739 181.27,665.239 184.5,662C 183.74,660.559 183.074,659.059 182.5,657.5C 183.833,656.5 185.167,655.5 186.5,654.5C 187.298,652.922 187.798,651.256 188,649.5C 187.92,653.987 189.42,654.987 192.5,652.5C 194.085,654.087 195.752,654.92 197.5,655C 195.421,655.153 193.421,655.986 191.5,657.5C 190.232,656.572 188.899,656.405 187.5,657C 188.833,657.667 188.833,658.333 187.5,659C 188,659.5 188.5,660 189,660.5C 191.719,659.556 194.552,659.223 197.5,659.5C 197.461,661.359 198.294,662.692 200,663.5C 200.935,658.998 202.269,658.665 204,662.5C 204.75,661.874 205.584,661.374 206.5,661C 207.634,659.984 207.301,659.317 205.5,659C 208.285,658.441 210.618,657.108 212.5,655C 209.416,650.785 209.75,646.452 213.5,642C 213.043,641.586 212.709,641.086 212.5,640.5C 215.378,638.411 218.045,636.077 220.5,633.5C 221.5,634.5 222.5,635.5 223.5,636.5C 222.092,637.243 220.759,638.077 219.5,639C 220.449,639.617 221.282,639.451 222,638.5C 222.333,639.833 222.667,641.167 223,642.5C 224.319,640.75 224.819,638.75 224.5,636.5C 225.822,636.67 226.989,636.337 228,635.5C 228.101,638.708 228.268,641.874 228.5,645C 227.167,645.333 225.833,645.667 224.5,646C 226.447,646.991 228.447,647.325 230.5,647C 230.056,645.467 229.723,643.967 229.5,642.5C 230.262,642.089 231.262,641.923 232.5,642C 231.549,641.282 231.383,640.449 232,639.5C 234,640.167 235.333,641.5 236,643.5C 236.333,642.833 236.667,642.167 237,641.5C 238.617,642.536 238.784,643.703 237.5,645C 235.793,645.195 234.126,645.195 232.5,645C 233.212,647.027 234.212,648.027 235.5,648C 234.67,649.465 234.504,650.965 235,652.5C 289.977,644.101 345.311,633.768 401,621.5C 403.632,611.13 406.799,600.963 410.5,591C 375.643,596.065 340.643,600.399 305.5,604C 289.521,605.392 273.521,605.725 257.5,605C 251.941,604.44 248.608,601.44 247.5,596C 248.739,590.643 251.739,586.809 256.5,584.5C 253.853,587.117 251.686,590.117 250,593.5C 249.294,595.971 249.627,598.305 251,600.5C 257.022,603.895 263.522,605.229 270.5,604.5C 316.828,602.019 362.828,596.686 408.5,588.5C 409.833,588.833 411.167,589.167 412.5,589.5C 408.541,600.672 405.208,612.005 402.5,623.5C 347.434,634.013 292.434,644.847 237.5,656C 239.291,659.751 241.457,663.251 244,666.5C 267.57,691.537 296.07,708.204 329.5,716.5C 294.659,725.819 259.326,727.986 223.5,723C 213.642,721.213 203.975,718.713 194.5,715.5C 200.203,722.187 206.87,728.521 214.5,734.5C 223.921,743.707 234.255,751.707 245.5,758.5C 248.736,761.797 252.403,764.63 256.5,767C 276.842,780.171 298.509,790.671 321.5,798.5C 343.642,807.117 366.642,812.45 390.5,814.5C 417.282,816.443 443.949,815.443 470.5,811.5C 471.492,811.672 472.158,811.338 472.5,810.5C 501.833,805.055 530.167,796.389 557.5,784.5C 561.576,782.814 565.576,781.147 569.5,779.5C 596.711,768.529 624.711,760.029 653.5,754C 676.655,749.948 699.988,748.448 723.5,749.5C 736.816,750.925 750.149,753.091 763.5,756C 776.016,759.84 788.35,763.84 800.5,768C 784.515,753.345 766.848,741.178 747.5,731.5C 735.425,724.129 722.759,717.796 709.5,712.5C 709.158,711.662 708.492,711.328 707.5,711.5C 697.342,703.921 687.009,696.588 676.5,689.5C 705.831,671.814 731.164,649.48 752.5,622.5C 752.435,622.938 752.601,623.272 753,623.5C 763.543,610.787 772.376,596.787 779.5,581.5C 783.159,573.687 786.326,565.687 789,557.5C 789.978,554.331 789.478,551.497 787.5,549C 753.441,554.578 719.441,560.744 685.5,567.5C 688.361,566.417 691.028,564.917 693.5,563C 692.692,562.692 692.025,562.192 691.5,561.5C 692.199,558.799 691.532,556.299 689.5,554C 689.833,553.667 690.167,553.333 690.5,553C 688.566,551.206 686.899,549.206 685.5,547C 685.905,546.055 686.572,545.388 687.5,545C 687.622,539.959 686.956,535.625 685.5,532C 687.434,511.848 687.934,491.681 687,471.5C 688.091,483.447 688.924,495.113 689.5,506.5C 691.002,505.917 692.335,505.084 693.5,504C 693.167,503.667 692.833,503.333 692.5,503C 693.191,501.933 693.691,500.766 694,499.5C 694.333,500.5 694.667,501.5 695,502.5C 695.157,500.005 695.324,497.672 695.5,495.5C 696.192,496.025 696.692,496.692 697,497.5C 697.419,496.328 698.085,495.328 699,494.5C 700.487,495.253 700.654,496.086 699.5,497C 701.381,498.102 703.048,499.435 704.5,501C 703.709,502.101 703.709,502.934 704.5,503.5C 705.576,501.013 706.91,498.68 708.5,496.5C 708.167,496.167 707.833,495.833 707.5,495.5C 706.784,496.311 705.95,496.978 705,497.5C 703.85,496.576 702.85,496.576 702,497.5C 702.718,493.64 705.218,491.64 709.5,491.5C 712.101,494.001 714.601,494.001 717,491.5C 717.065,493.883 717.898,494.55 719.5,493.5C 720.711,494.274 720.711,495.107 719.5,496C 722.32,499.396 723.986,498.729 724.5,494C 723.29,489.597 723.79,489.43 726,493.5C 726.483,492.552 726.649,491.552 726.5,490.5C 728.124,490.64 729.29,489.973 730,488.5C 730.684,489.784 730.517,490.951 729.5,492C 730.833,492.333 732.167,492.667 733.5,493C 732.167,494 732.167,495 733.5,496C 732.833,496.333 732.167,496.667 731.5,497C 732.914,501.696 732.414,502.196 730,498.5C 729.833,499 729.667,499.5 729.5,500C 730.531,502.518 732.198,503.351 734.5,502.5C 735.478,501.199 735.145,500.032 733.5,499C 733.944,497.238 734.444,497.405 735,499.5C 736.049,498.483 737.216,498.316 738.5,499C 737.304,499.654 737.304,500.154 738.5,500.5C 739.807,499.184 741.307,498.184 743,497.5C 743.667,501.5 744.333,501.5 745,497.5C 746.868,499.756 748.368,502.256 749.5,505C 748.692,505.308 748.025,505.808 747.5,506.5C 748.274,507.711 749.107,507.711 750,506.5C 750.7,508.032 751.866,509.032 753.5,509.5C 753.296,508.471 753.796,507.471 755,506.5C 755.333,506.833 755.667,507.167 756,507.5C 757.067,506.809 758.234,506.309 759.5,506C 759.043,505.586 758.709,505.086 758.5,504.5C 759.908,503.757 761.241,502.923 762.5,502C 763.833,502 765.167,502 766.5,502C 765.833,501.333 765.167,500.667 764.5,500C 765.715,497.904 766.549,498.071 767,500.5C 768.085,499.707 769.252,499.04 770.5,498.5C 772.253,501.254 773.253,503.921 773.5,506.5C 773.751,504.013 774.251,501.68 775,499.5C 776.314,502.855 777.814,506.522 779.5,510.5C 779.291,511.086 778.957,511.586 778.5,512C 780.632,512.918 781.299,514.251 780.5,516C 781.744,516.456 782.577,515.956 783,514.5C 783.219,515.938 783.719,517.271 784.5,518.5C 788.386,517.412 788.386,516.579 784.5,516C 785.833,515.333 786.833,514.333 787.5,513C 790.008,512.346 792.174,511.179 794,509.5C 795.826,511.179 797.992,512.346 800.5,513C 796.986,515.721 796.653,518.888 799.5,522.5C 800.291,518.286 802.124,517.952 805,521.5C 806,520.167 807,520.167 808,521.5C 808.019,518.692 809.019,516.359 811,514.5C 812.835,516.727 812.335,518.56 809.5,520C 811,522.167 812.5,524.333 814,526.5C 816.116,525.257 818.282,524.091 820.5,523C 818.991,521.326 818.324,519.66 818.5,518C 819.449,517.383 820.282,517.549 821,518.5C 821.167,518 821.333,517.5 821.5,517C 817.589,514.519 817.922,512.519 822.5,511C 820.307,509.936 818.307,508.602 816.5,507C 817.43,506.009 818.596,505.509 820,505.5C 822.558,507.299 824.225,506.632 825,503.5C 826.087,505.932 826.587,505.598 826.5,502.5C 825.178,502.33 824.011,502.663 823,503.5C 822.5,503 822,502.5 821.5,502C 822.978,500.807 824.312,500.307 825.5,500.5C 824.624,499.749 823.624,499.249 822.5,499C 824.569,498.676 824.902,497.842 823.5,496.5C 824.365,495.417 825.365,495.251 826.5,496C 827.289,499.097 828.456,499.264 830,496.5C 831.167,497.667 832.333,498.833 833.5,500C 830.458,499.466 829.292,500.966 830,504.5C 832.814,507.591 836.147,508.591 840,507.5C 841.937,510.442 844.271,513.109 847,515.5C 847.37,513.336 848.204,511.336 849.5,509.5C 850.451,510.326 851.451,510.492 852.5,510C 851.241,509.077 849.908,508.243 848.5,507.5C 850.012,506.751 851.012,505.584 851.5,504C 850.38,502.263 849.38,500.429 848.5,498.5C 849.668,497.094 849.335,495.928 847.5,495C 848.649,493.396 848.649,491.73 847.5,490C 848.101,488.395 849.101,487.062 850.5,486C 850.043,485.586 849.709,485.086 849.5,484.5C 850.035,482.729 850.869,482.396 852,483.5C 856.613,477.815 859.613,478.481 861,485.5C 863.173,482.723 863.673,482.89 862.5,486C 865.032,486.612 865.865,488.112 865,490.5C 861.356,486.443 857.356,486.11 853,489.5C 852.667,489.167 852.333,488.833 852,488.5C 851.349,490.235 851.515,491.902 852.5,493.5C 851.624,494.251 850.624,494.751 849.5,495C 852.742,495.283 853.076,496.117 850.5,497.5C 851.752,499.001 852.752,500.668 853.5,502.5C 853.537,498.273 854.37,493.94 856,489.5C 857,490.5 858,491.5 859,492.5C 858.681,494.743 858.848,496.91 859.5,499C 861.112,499.72 862.612,499.554 864,498.5C 864.75,499.126 865.584,499.626 866.5,500C 864.292,500.936 862.958,502.602 862.5,505C 864.956,507.946 867.623,510.613 870.5,513C 869.789,514.255 868.956,515.421 868,516.5C 867.333,515.167 866.667,515.167 866,516.5C 865.544,515.256 866.044,514.423 867.5,514C 866.333,513.5 865.5,512.667 865,511.5C 864.801,513.402 863.967,514.902 862.5,516C 864.988,519.448 864.322,522.448 860.5,525C 861.227,526.399 861.727,527.899 862,529.5C 862.333,529.167 862.667,528.833 863,528.5C 864.951,530.137 864.784,531.637 862.5,533C 867.328,535.061 867.328,536.394 862.5,537C 862.833,537.333 863.167,537.667 863.5,538C 861.338,540.671 859.338,543.505 857.5,546.5C 855.207,544.608 853.374,542.275 852,539.5C 851.581,540.672 850.915,541.672 850,542.5C 847.871,541.137 847.371,541.471 848.5,543.5C 847.5,544.167 846.5,544.833 845.5,545.5C 846.397,545.669 847.397,546.002 848.5,546.5C 846.899,547.204 845.565,548.371 844.5,550C 845.227,551.399 845.727,552.899 846,554.5C 847.716,553.448 848.716,554.114 849,556.5C 850.734,555.362 852.568,554.862 854.5,555C 852.026,557.428 852.526,557.928 856,556.5C 856.536,558.869 857.703,560.869 859.5,562.5C 860.192,561.975 860.692,561.308 861,560.5C 861.837,562.844 863.171,564.844 865,566.5C 865.333,566.167 865.667,565.833 866,565.5C 868.134,567.578 867.968,569.412 865.5,571C 867.833,570.667 870.167,570.333 872.5,570C 870.021,570.879 868.021,572.379 866.5,574.5C 867.322,577.792 869.156,579.125 872,578.5C 873.309,580.891 874.309,580.891 875,578.5C 876.237,580.104 877.403,581.771 878.5,583.5C 879.646,582.855 880.646,582.022 881.5,581C 880.903,579.111 880.569,577.278 880.5,575.5C 881.648,573.851 882.981,572.351 884.5,571C 884,570.5 883.5,570 883,569.5C 882.396,571.686 881.23,571.852 879.5,570C 880.692,568.088 881.692,566.088 882.5,564C 883.332,563.312 883.998,563.479 884.5,564.5C 883.106,565.687 883.273,566.354 885,566.5C 886.663,564.672 888.496,563.005 890.5,561.5C 893.795,563.297 896.628,565.63 899,568.5C 899.508,566.096 900.675,565.429 902.5,566.5C 905.791,565.003 909.124,563.503 912.5,562C 910.919,561.293 909.419,560.46 908,559.5C 907.51,560.793 907.343,562.127 907.5,563.5C 904.282,563.349 903.949,562.516 906.5,561C 905.891,558.942 904.891,558.109 903.5,558.5C 903.865,557.098 904.699,556.098 906,555.5C 908.298,556.961 910.465,558.628 912.5,560.5C 913.086,560.291 913.586,559.957 914,559.5C 912.559,562.706 912.059,566.039 912.5,569.5C 917.476,570.446 917.476,571.946 912.5,574C 913.253,575.487 914.086,575.654 915,574.5C 915.928,577.035 917.762,578.035 920.5,577.5C 920.421,576.07 920.754,574.736 921.5,573.5C 924.212,570.751 926.212,571.085 927.5,574.5C 929.332,573.752 930.999,572.752 932.5,571.5C 933.5,572.167 934.5,572.833 935.5,573.5C 937.138,572.295 937.471,570.962 936.5,569.5C 938.959,567.95 939.626,565.95 938.5,563.5C 941.842,561.66 942.176,559.494 939.5,557C 940.167,556.667 940.833,556.333 941.5,556C 939.224,554.844 936.891,553.51 934.5,552C 937.901,552.266 939.567,550.766 939.5,547.5C 938.325,547.719 937.325,547.386 936.5,546.5C 937.274,545.289 938.107,545.289 939,546.5C 939.853,544.875 940.853,544.542 942,545.5C 944.069,544.736 946.236,544.236 948.5,544C 950.089,542.255 952.089,541.088 954.5,540.5C 954.291,539.914 953.957,539.414 953.5,539C 954.667,538.5 955.5,537.667 956,536.5C 956.249,537.624 956.749,538.624 957.5,539.5C 957.833,538.833 958.167,538.167 958.5,537.5C 961.403,539.552 961.07,540.886 957.5,541.5C 957.667,541.833 957.833,542.167 958,542.5C 959.011,541.663 960.178,541.33 961.5,541.5C 959.726,537.745 961.059,535.911 965.5,536C 960.379,534.577 960.379,533.577 965.5,533C 961.016,528.493 962.016,525.326 968.5,523.5C 970.977,525.365 973.311,527.032 975.5,528.5C 977.045,529.452 978.712,529.785 980.5,529.5C 980.351,528.448 980.517,527.448 981,526.5C 981.986,528.778 982.82,531.111 983.5,533.5C 979.735,533.295 979.735,534.128 983.5,536C 982.167,536.667 982.167,537.333 983.5,538C 981.401,539.682 980.068,541.348 979.5,543C 981.482,545.198 983.482,546.698 985.5,547.5C 986.192,546.975 986.692,546.308 987,545.5C 988.852,549.698 990.852,552.364 993,553.5C 995.149,551.276 994.649,549.776 991.5,549C 994.418,549.36 997.084,549.86 999.5,550.5C 998.91,551.799 997.91,552.632 996.5,553C 996.923,554.509 998.09,556.009 1000,557.5C 1000.67,556.833 1001.33,556.167 1002,555.5C 1003.99,558.587 1003.49,560.754 1000.5,562C 1001.17,562.333 1001.83,562.667 1002.5,563C 1001.72,564.073 1001.89,565.24 1003,566.5C 1003.74,564.779 1004.57,563.113 1005.5,561.5C 1006.45,562.326 1007.45,562.492 1008.5,562C 1006.99,560.326 1006.32,558.66 1006.5,557C 1008.22,556.261 1009.89,555.427 1011.5,554.5C 1009.86,552.86 1008.19,551.194 1006.5,549.5C 1007.52,547.568 1007.69,545.568 1007,543.5C 1005.55,544.614 1004.22,545.614 1003,546.5C 1001.18,545.251 1001.34,544.085 1003.5,543C 1002.04,542.577 1001.54,541.744 1002,540.5C 1003.05,541.517 1004.22,541.684 1005.5,541C 1004.17,540.333 1004.17,539.667 1005.5,539C 1003.07,537.913 1003.4,537.413 1006.5,537.5C 1006.23,539.429 1006.73,541.095 1008,542.5C 1009.21,540.951 1010.71,539.785 1012.5,539C 1011.83,538.667 1011.17,538.333 1010.5,538C 1013.75,536.544 1016.41,534.377 1018.5,531.5C 1019.7,531.846 1019.7,532.346 1018.5,533C 1020.45,533.366 1022.12,534.199 1023.5,535.5 Z"/></g>
<g><path style="opacity:1" fill="#f2f3f3" d="M 752.5,622.5 C 768.54,601.591 780.54,578.425 788.5,553C 787.771,551.008 786.271,550.174 784,550.5C 667.974,572.705 551.974,595.039 436,617.5C 435.5,617.167 435,616.833 434.5,616.5C 437.342,604.964 441.342,593.964 446.5,583.5C 442.947,593.863 439.613,604.363 436.5,615C 519.571,599.753 602.571,583.919 685.5,567.5C 719.441,560.744 753.441,554.578 787.5,549C 789.478,551.497 789.978,554.331 789,557.5C 786.326,565.687 783.159,573.687 779.5,581.5C 772.376,596.787 763.543,610.787 753,623.5C 752.601,623.272 752.435,622.938 752.5,622.5 Z"/></g>
<g><path style="opacity:1" fill="#0e8b9a" d="M 676.5,689.5 C 687.009,696.588 697.342,703.921 707.5,711.5C 645.361,688.371 583.361,688.871 521.5,713C 499.484,721.507 477.818,730.841 456.5,741C 393.707,769.064 329.041,774.397 262.5,757C 245.542,751.352 229.542,743.852 214.5,734.5C 206.87,728.521 200.203,722.187 194.5,715.5C 203.975,718.713 213.642,721.213 223.5,723C 259.326,727.986 294.659,725.819 329.5,716.5C 348.452,711.238 367.119,705.072 385.5,698C 415.693,684.824 446.36,672.824 477.5,662C 532.48,645.779 586.48,648.446 639.5,670C 651.887,676.525 664.22,683.025 676.5,689.5 Z"/></g>
<g><path style="opacity:1" fill="#004263" d="M 707.5,711.5 C 708.492,711.328 709.158,711.662 709.5,712.5C 708.262,712.81 708.262,713.31 709.5,714C 722.069,720.119 734.735,725.952 747.5,731.5C 766.848,741.178 784.515,753.345 800.5,768C 788.35,763.84 776.016,759.84 763.5,756C 750.149,753.091 736.816,750.925 723.5,749.5C 725.527,749.662 727.527,749.495 729.5,749C 703.303,746.351 677.303,747.684 651.5,753C 622.402,758.561 595.069,767.394 569.5,779.5C 565.576,781.147 561.576,782.814 557.5,784.5C 557.44,783.957 557.107,783.624 556.5,783.5C 528.626,795.09 500.626,804.09 472.5,810.5C 472.158,811.338 471.492,811.672 470.5,811.5C 469.551,810.848 468.385,810.514 467,810.5C 456.229,812.227 445.396,813.394 434.5,814C 419.652,814.291 404.986,814.458 390.5,814.5C 366.642,812.45 343.642,807.117 321.5,798.5C 295.53,787.503 270.196,774.169 245.5,758.5C 234.255,751.707 223.921,743.707 214.5,734.5C 229.542,743.852 245.542,751.352 262.5,757C 329.041,774.397 393.707,769.064 456.5,741C 477.818,730.841 499.484,721.507 521.5,713C 583.361,688.871 645.361,688.371 707.5,711.5 Z"/></g>
<g><path style="opacity:1" fill="#061b3f" d="M 709.5,712.5 C 722.759,717.796 735.425,724.129 747.5,731.5C 734.735,725.952 722.069,720.119 709.5,714C 708.262,713.31 708.262,712.81 709.5,712.5 Z"/></g>
<g><path style="opacity:1" fill="#02183d" d="M 723.5,749.5 C 699.988,748.448 676.655,749.948 653.5,754C 624.711,760.029 596.711,768.529 569.5,779.5C 595.069,767.394 622.402,758.561 651.5,753C 677.303,747.684 703.303,746.351 729.5,749C 727.527,749.495 725.527,749.662 723.5,749.5 Z"/></g>
<g><path style="opacity:1" fill="#091c3d" d="M 245.5,758.5 C 270.196,774.169 295.53,787.503 321.5,798.5C 298.509,790.671 276.842,780.171 256.5,767C 252.403,764.63 248.736,761.797 245.5,758.5 Z"/></g>
<g><path style="opacity:1" fill="#03173a" d="M 557.5,784.5 C 530.167,796.389 501.833,805.055 472.5,810.5C 500.626,804.09 528.626,795.09 556.5,783.5C 557.107,783.624 557.44,783.957 557.5,784.5 Z"/></g>
<g><path style="opacity:1" fill="#010e34" d="M 470.5,811.5 C 443.949,815.443 417.282,816.443 390.5,814.5C 404.986,814.458 419.652,814.291 434.5,814C 445.396,813.394 456.229,812.227 467,810.5C 468.385,810.514 469.551,810.848 470.5,811.5 Z"/></g>
</svg>
